<?xml version="1.0" encoding="UTF-8" standalone="no"?>
<svg
   xmlns:dc="http://purl.org/dc/elements/1.1/"
   xmlns:cc="http://creativecommons.org/ns#"
   xmlns:rdf="http://www.w3.org/1999/02/22-rdf-syntax-ns#"
   xmlns:svg="http://www.w3.org/2000/svg"
   xmlns="http://www.w3.org/2000/svg"
   xmlns:sodipodi="http://sodipodi.sourceforge.net/DTD/sodipodi-0.dtd"
   xmlns:inkscape="http://www.inkscape.org/namespaces/inkscape"
   width="571.89294mm"
   height="498.52585mm"
   viewBox="0 0 571.89294 498.52586"
   version="1.1"
   id="svg856"
   inkscape:version="1.0.1 (3bc2e813f5, 2020-09-07)"
   sodipodi:docname="waves-angles.svg"
   inkscape:export-filename="c:\sa\papers\My\CodeProject\April1st-2023-Earth-Curvature\article\pictures\waves-angles.png"
   inkscape:export-xdpi="28.42"
   inkscape:export-ydpi="28.42">
  <defs
     id="defs850">
    <marker
       style="overflow:visible"
       id="marker975"
       refX="0"
       refY="0"
       orient="auto"
       inkscape:stockid="Arrow1Lstart"
       inkscape:isstock="true">
      <path
         transform="matrix(0.8,0,0,0.8,10,0)"
         style="fill:#000000;fill-opacity:1;fill-rule:evenodd;stroke:#000000;stroke-width:1pt;stroke-opacity:1"
         d="M 0,0 5,-5 -12.5,0 5,5 Z"
         id="path973" />
    </marker>
    <marker
       style="overflow:visible"
       id="marker5589"
       refX="0"
       refY="0"
       orient="auto"
       inkscape:stockid="Arrow1Lend"
       inkscape:isstock="true">
      <path
         transform="matrix(-0.8,0,0,-0.8,-10,0)"
         style="fill:#000000;fill-opacity:1;fill-rule:evenodd;stroke:#000000;stroke-width:1pt;stroke-opacity:1"
         d="M 0,0 5,-5 -12.5,0 5,5 Z"
         id="path5587" />
    </marker>
    <marker
       style="overflow:visible"
       id="marker5498"
       refX="0"
       refY="0"
       orient="auto"
       inkscape:stockid="Arrow1Lend"
       inkscape:isstock="true">
      <path
         transform="matrix(-0.8,0,0,-0.8,-10,0)"
         style="fill:#000000;fill-opacity:1;fill-rule:evenodd;stroke:#000000;stroke-width:1pt;stroke-opacity:1"
         d="M 0,0 5,-5 -12.5,0 5,5 Z"
         id="path5496" />
    </marker>
    <marker
       style="overflow:visible"
       id="marker5447"
       refX="0"
       refY="0"
       orient="auto"
       inkscape:stockid="Arrow1Lstart"
       inkscape:isstock="true">
      <path
         transform="matrix(0.8,0,0,0.8,10,0)"
         style="fill:#000000;fill-opacity:1;fill-rule:evenodd;stroke:#000000;stroke-width:1pt;stroke-opacity:1"
         d="M 0,0 5,-5 -12.5,0 5,5 Z"
         id="path5445" />
    </marker>
    <marker
       style="overflow:visible"
       id="Arrow2Send"
       refX="0"
       refY="0"
       orient="auto"
       inkscape:stockid="Arrow2Send"
       inkscape:isstock="true">
      <path
         transform="matrix(-0.3,0,0,-0.3,0.69,0)"
         d="M 8.7185878,4.0337352 -2.2072895,0.01601326 8.7185884,-4.0017078 c -1.7454984,2.3720609 -1.7354408,5.6174519 -6e-7,8.035443 z"
         style="fill:#000000;fill-opacity:1;fill-rule:evenodd;stroke:#000000;stroke-width:0.625;stroke-linejoin:round;stroke-opacity:1"
         id="path1595" />
    </marker>
    <marker
       inkscape:stockid="DistanceStart"
       orient="auto"
       refY="0"
       refX="0"
       id="DistanceStart"
       style="overflow:visible"
       inkscape:isstock="true">
      <g
         id="g2300"
         style="fill:#000000;fill-opacity:1;stroke:#000000;stroke-opacity:1">
        <path
           id="path2306"
           d="M 0,0 H 2"
           style="fill:#000000;fill-opacity:1;stroke:#000000;stroke-width:1.15;stroke-linecap:square;stroke-opacity:1" />
        <path
           id="path2302"
           d="M 0,0 13,4 9,0 13,-4 Z"
           style="fill:#000000;fill-opacity:1;fill-rule:evenodd;stroke:#000000;stroke-opacity:1" />
        <path
           id="path2304"
           d="M 0,-4 V 40"
           style="fill:#000000;fill-opacity:1;stroke:#000000;stroke-width:1;stroke-linecap:square;stroke-opacity:1" />
      </g>
    </marker>
    <marker
       style="overflow:visible"
       id="marker4195"
       refX="0"
       refY="0"
       orient="auto"
       inkscape:stockid="Arrow1Lstart"
       inkscape:isstock="true"
       inkscape:collect="always">
      <path
         transform="matrix(0.8,0,0,0.8,10,0)"
         style="fill:#000000;fill-opacity:1;fill-rule:evenodd;stroke:#000000;stroke-width:1pt;stroke-opacity:1"
         d="M 0,0 5,-5 -12.5,0 5,5 Z"
         id="path4193" />
    </marker>
    <marker
       style="overflow:visible"
       id="marker2349"
       refX="0"
       refY="0"
       orient="auto"
       inkscape:stockid="Arrow1Lstart"
       inkscape:isstock="true"
       inkscape:collect="always">
      <path
         transform="matrix(0.8,0,0,0.8,10,0)"
         style="fill:#000000;fill-opacity:1;fill-rule:evenodd;stroke:#000000;stroke-width:1pt;stroke-opacity:1"
         d="M 0,0 5,-5 -12.5,0 5,5 Z"
         id="path2347" />
    </marker>
    <marker
       style="overflow:visible"
       id="Arrow1Lstart"
       refX="0"
       refY="0"
       orient="auto"
       inkscape:stockid="Arrow1Lstart"
       inkscape:isstock="true">
      <path
         transform="matrix(0.8,0,0,0.8,10,0)"
         style="fill:#000000;fill-opacity:1;fill-rule:evenodd;stroke:#000000;stroke-width:1pt;stroke-opacity:1"
         d="M 0,0 5,-5 -12.5,0 5,5 Z"
         id="path1562" />
    </marker>
    <marker
       style="overflow:visible"
       id="Arrow1Lend"
       refX="0"
       refY="0"
       orient="auto"
       inkscape:stockid="Arrow1Lend"
       inkscape:isstock="true"
       inkscape:collect="always">
      <path
         transform="matrix(-0.8,0,0,-0.8,-10,0)"
         style="fill:#000000;fill-opacity:1;fill-rule:evenodd;stroke:#000000;stroke-width:1pt;stroke-opacity:1"
         d="M 0,0 5,-5 -12.5,0 5,5 Z"
         id="path1565" />
    </marker>
    <marker
       style="overflow:visible"
       id="Arrow1Mstart"
       refX="0"
       refY="0"
       orient="auto"
       inkscape:stockid="Arrow1Mstart"
       inkscape:isstock="true">
      <path
         transform="matrix(0.4,0,0,0.4,4,0)"
         style="fill:#000000;fill-opacity:1;fill-rule:evenodd;stroke:#000000;stroke-width:1pt;stroke-opacity:1"
         d="M 0,0 5,-5 -12.5,0 5,5 Z"
         id="path1568" />
    </marker>
    <marker
       style="overflow:visible"
       id="Arrow1Mstart-7"
       refX="0"
       refY="0"
       orient="auto"
       inkscape:stockid="Arrow1Mstart"
       inkscape:isstock="true">
      <path
         transform="matrix(0.4,0,0,0.4,4,0)"
         style="fill:#000000;fill-opacity:1;fill-rule:evenodd;stroke:#000000;stroke-width:1pt;stroke-opacity:1"
         d="M 0,0 5,-5 -12.5,0 5,5 Z"
         id="path1568-4" />
    </marker>
    <marker
       style="overflow:visible"
       id="marker5447-5"
       refX="0"
       refY="0"
       orient="auto"
       inkscape:stockid="Arrow1Lstart"
       inkscape:isstock="true"
       inkscape:collect="always">
      <path
         transform="matrix(0.8,0,0,0.8,10,0)"
         style="fill:#000000;fill-opacity:1;fill-rule:evenodd;stroke:#000000;stroke-width:1pt;stroke-opacity:1"
         d="M 0,0 5,-5 -12.5,0 5,5 Z"
         id="path5445-3" />
    </marker>
  </defs>
  <sodipodi:namedview
     id="base"
     pagecolor="#ffffff"
     bordercolor="#666666"
     borderopacity="1.0"
     inkscape:pageopacity="0.0"
     inkscape:pageshadow="2"
     inkscape:zoom="0.35"
     inkscape:cx="1451.2938"
     inkscape:cy="912.90731"
     inkscape:document-units="mm"
     inkscape:current-layer="layer1"
     inkscape:document-rotation="0"
     showgrid="true"
     inkscape:window-width="1920"
     inkscape:window-height="1027"
     inkscape:window-x="-8"
     inkscape:window-y="-8"
     inkscape:window-maximized="1"
     fit-margin-top="0"
     fit-margin-left="0"
     fit-margin-right="0"
     fit-margin-bottom="0">
    <inkscape:grid
       type="xygrid"
       id="grid1419"
       originx="145.44285"
       originy="1017.0012" />
  </sodipodi:namedview>
  <metadata
     id="metadata853">
    <rdf:RDF>
      <cc:Work
         rdf:about="">
        <dc:format>image/svg+xml</dc:format>
        <dc:type
           rdf:resource="http://purl.org/dc/dcmitype/StillImage" />
        <dc:title />
      </cc:Work>
    </rdf:RDF>
  </metadata>
  <g
     inkscape:label="Layer 1"
     inkscape:groupmode="layer"
     id="layer1"
     transform="translate(145.44287,1017.0012)">
    <path
       id="rect1442"
       style="fill:#9ccae2;fill-opacity:1;stroke:#000000;stroke-width:1;stroke-miterlimit:4;stroke-dasharray:none;stroke-opacity:1;paint-order:markers stroke fill"
       d="m 425.44994,-638.26222 -0.20256,-0.11885 -1.21492,-0.70951 -1.21594,-0.70797 -1.21698,-0.70641 -1.21801,-0.70437 -1.21907,-0.70332 -1.21954,-0.70122 -1.22113,-0.69972 -1.22164,-0.69866 -1.22266,-0.69609 -1.22317,-0.69504 -1.22473,-0.6935 -1.22526,-0.69143 -1.22627,-0.6904 -1.22732,-0.68832 -1.22782,-0.68678 -1.22939,-0.68524 -1.22992,-0.68368 -1.23041,-0.6816 -1.23196,-0.68006 -1.23248,-0.67902 -1.23351,-0.67697 -1.23455,-0.67542 -1.23558,-0.67334 -1.2361,-0.67231 -1.23714,-0.67024 -1.23817,-0.66871 -1.23868,-0.66712 -1.23973,-0.66561 -1.24073,-0.66352 -1.2418,-0.66249 -1.2423,-0.66043 -1.24333,-0.65887 -1.24436,-0.65733 -1.24489,-0.65526 -1.24592,-0.65421 -1.24696,-0.65217 -1.24746,-0.65059 -1.24851,-0.64907 -1.24955,-0.64699 -1.25055,-0.64542 -1.25108,-0.64442 -1.25162,-0.64183 -1.25314,-0.64077 -1.25368,-0.63873 -1.25418,-0.6377 -1.25573,-0.6356 -1.25627,-0.63355 -1.25677,-0.63251 -1.25781,-0.63048 -1.25883,-0.62889 -1.25987,-0.62735 -1.26039,-0.62579 -1.2609,-0.62376 -1.26246,-0.62217 -1.26246,-0.62063 -1.26399,-0.61857 -1.26453,-0.61754 -1.26505,-0.61547 -1.26659,-0.61391 -1.26658,-0.61185 -1.26815,-0.61029 -1.26865,-0.60875 -1.26918,-0.60719 -1.27019,-0.60566 -1.27124,-0.60357 -1.27177,-0.60203 -1.27278,-0.59997 -1.27331,-0.59894 -1.27434,-0.59685 -1.27486,-0.59531 -1.27591,-0.59325 -1.2764,-0.59221 -1.27743,-0.59016 -1.27797,-0.58806 -1.27899,-0.58706 -1.28,-0.58496 -1.28056,-0.58344 -1.28106,-0.58137 -1.28209,-0.58031 -1.2826,-0.57774 -1.28365,-0.57671 -1.28468,-0.57465 -1.28466,-0.57309 -1.28625,-0.57155 -1.28674,-0.56999 -1.28725,-0.56791 -1.28778,-0.56586 -1.28932,-0.56483 -1.28934,-0.56275 -1.29035,-0.5612 -1.2914,-0.55915 -1.29191,-0.55811 -1.29244,-0.55552 -1.29344,-0.55449 -1.294,-0.55242 -1.295,-0.55086 -1.29553,-0.54933 -1.29604,-0.54724 -1.29709,-0.5457 -1.2976,-0.54364 -1.29862,-0.5421 -1.29913,-0.54052 -1.30019,-0.53898 -1.30017,-0.53692 -1.30175,-0.53539 -1.30172,-0.53329 -1.30275,-0.53176 -1.30329,-0.5302 -1.30432,-0.52864 -1.30481,-0.5266 -1.30588,-0.52451 -1.30585,-0.52348 -1.30691,-0.52141 -1.30792,-0.51935 -1.30844,-0.51779 -1.30897,-0.51626 -1.30948,-0.51469 -1.31051,-0.51263 -1.31103,-0.51107 -1.31157,-0.50903 -1.31257,-0.50744 -1.3131,-0.50591 -1.31361,-0.50385 -1.31466,-0.50231 -1.31516,-0.50022 -1.31567,-0.49919 -1.3162,-0.49663 -1.31725,-0.49556 -1.31773,-0.49353 -1.31829,-0.49143 -1.31929,-0.48988 -1.31929,-0.48834 -1.32032,-0.48628 -1.32138,-0.48474 -1.32137,-0.48316 -1.3224,-0.48112 -1.32291,-0.47955 -1.32344,-0.4775 -1.32446,-0.47593 -1.32447,-0.4744 -1.3255,-0.47231 -1.32602,-0.47077 -1.32705,-0.46871 -1.32705,-0.46715 -1.32809,-0.46511 -1.3286,-0.46352 -1.32911,-0.46199 -1.32964,-0.45993 -1.33067,-0.45836 -1.33067,-0.45683 -1.3317,-0.45474 -1.33222,-0.4527 -1.33273,-0.45111 -1.33377,-0.44961 -1.33377,-0.44752 -1.3348,-0.44595 -1.3348,-0.44389 -1.33584,-0.44236 -1.33635,-0.4408 -1.33687,-0.43873 -1.3379,-0.43667 -1.3379,-0.43563 -1.33894,-0.43305 -1.33894,-0.43201 -1.33997,-0.42944 -1.34049,-0.42839 -1.341,-0.42635 -1.34152,-0.42426 -1.34204,-0.4227 -1.34255,-0.42116 -1.34359,-0.4191 -1.34358,-0.41754 -1.34411,-0.4155 -1.34514,-0.41392 -1.34565,-0.41185 -1.34565,-0.41031 -1.34669,-0.40826 -1.34721,-0.40669 -1.3472,-0.40515 -1.34824,-0.40307 -1.34875,-0.401 -1.34928,-0.39947 -1.34978,-0.39791 -1.35031,-0.39584 -1.35082,-0.39378 -1.35134,-0.39272 -1.35185,-0.39015 -1.35238,-0.38862 -1.35289,-0.38706 -1.3534,-0.385 -1.35392,-0.38343 -1.35393,-0.38137 -1.35495,-0.37981 -1.35548,-0.37777 -1.35599,-0.37619 -1.3565,-0.37415 -1.35702,-0.37258 -1.35754,-0.37105 -1.35754,-0.36844 -1.35858,-0.36742 -1.35857,-0.36537 -1.35961,-0.36327 -1.3596,-0.36174 -1.36065,-0.35967 -1.36064,-0.35812 -1.36115,-0.35605 -1.36168,-0.35448 -1.36219,-0.35246 -1.3627,-0.35086 -1.36323,-0.34936 -1.36374,-0.34673 -1.36426,-0.34571 -1.36426,-0.34313 -1.36529,-0.34211 -1.36529,-0.34002 -1.36581,-0.33798 -1.36632,-0.33641 -1.36684,-0.33433 -1.36736,-0.33229 -1.36736,-0.33126 -1.36839,-0.32864 -1.36839,-0.32713 -1.36891,-0.32554 -1.36943,-0.32351 -1.36994,-0.32194 -1.37046,-0.31988 -1.37046,-0.3178 -1.37097,-0.31628 -1.3715,-0.31469 -1.37201,-0.31266 -1.37252,-0.31057 -1.37253,-0.30903 -1.37356,-0.30695 -1.37356,-0.30541 -1.37356,-0.30384 -1.37459,-0.30128 -1.37459,-0.29972 -1.37563,-0.29819 -1.37563,-0.29609 -1.37562,-0.29457 -1.37666,-0.29249 -1.37666,-0.29041 -1.37718,-0.28887 -1.37718,-0.28734 -1.37821,-0.28525 -1.37821,-0.28318 -1.37872,-0.28162 -1.37873,-0.27959 -1.379754,-0.27802 -1.379754,-0.27593 -1.380271,-0.2739 -1.380271,-0.27284 -1.380784,-0.27027 -1.381301,-0.26874 -1.381312,-0.26665 -1.382345,-0.26508 -1.382344,-0.26305 -1.382345,-0.26146 -1.382861,-0.25943 -1.383379,-0.25786 -1.383892,-0.2558 -1.383896,-0.25373 -1.384411,-0.25218 -1.384413,-0.25064 -1.384927,-0.24804 -1.385446,-0.24702 -1.385962,-0.24442 -1.385961,-0.24289 -1.385962,-0.24133 -1.386996,-0.23926 -1.38648,-0.2372 -1.387512,-0.23564 -1.387512,-0.23357 -1.388028,-0.23204 -1.388028,-0.22995 -1.388547,-0.22841 -1.388546,-0.22635 -1.389578,-0.22426 -1.389063,-0.22273 -1.389578,-0.22066 -1.390097,-0.21911 -1.390097,-0.21703 -1.390613,-0.21498 -1.391129,-0.21344 -1.391129,-0.21187 -1.391129,-0.20929 -1.391647,-0.20825 -1.392164,-0.20566 -1.392163,-0.20413 -1.39268,-0.20257 -1.392679,-0.2005 -1.392679,-0.19843 -1.393714,-0.19691 -1.393198,-0.19481 -1.39423,-0.19275 -1.393711,-0.19121 -1.394232,-0.18966 -1.394746,-0.18706 -1.394746,-0.18552 -1.395264,-0.18397 -1.395265,-0.1819 -1.395264,-0.17984 -1.39578,-0.17827 -1.396296,-0.17674 -1.396299,-0.17415 -1.396296,-0.17259 -1.396815,-0.17105 -1.396813,-0.16899 -1.397331,-0.1669 -1.39733,-0.16486 -1.397331,-0.16381 -1.397848,-0.16123 -1.398364,-0.15968 -1.3978474,-0.15761 -1.3988791,-0.15608 -1.3983641,-0.15399 -1.3988804,-0.15192 -1.3988801,-0.15039 -1.3993961,-0.14883 -1.39939817,-0.14623 -1.39991451,-0.1447 -1.39991432,-0.14314 -1.3999147,-0.14108 -1.3999146,-0.13901 -1.4004311,-0.13745 -1.4009482,-0.13539 -1.4004314,-0.13335 -1.4009488,-0.13176 -1.401465,-0.1297 -1.400949,-0.12817 -1.401466,-0.1261 -1.401465,-0.12401 -1.401983,-0.12247 -1.401982,-0.12092 -1.401981,-0.11834 -1.402499,-0.11679 -1.402498,-0.11525 -1.402499,-0.11264 -1.402498,-0.11162 -1.403015,-0.10904 -1.403015,-0.1075 -1.403015,-0.10541 -1.403015,-0.10388 -1.403532,-0.10181 -1.403532,-0.10025 -1.404049,-0.0982 -1.403533,-0.0961 -1.404048,-0.0946 -1.404049,-0.0925 -1.404048,-0.0904 -1.404565,-0.0889 -1.404048,-0.0868 -1.404567,-0.0853 -1.40508,-0.0832 -1.404568,-0.0811 -1.404564,-0.0796 -1.405083,-0.0775 -1.40508,-0.076 -1.405083,-0.0739 -1.405599,-0.0718 -1.405083,-0.0703 -1.405599,-0.0682 -1.405599,-0.0667 -1.405599,-0.0641 -1.405599,-0.063 -1.406115,-0.0605 -1.405599,-0.0589 -1.406115,-0.0574 -1.406117,-0.0548 -1.406115,-0.0537 -1.406115,-0.0512 -1.406118,-0.0496 -1.406114,-0.0475 -1.406634,-0.046 -1.406115,-0.0439 -1.406631,-0.0424 -1.406633,-0.0398 -1.406634,-0.0387 -1.40663,-0.0362 -1.406634,-0.0346 -1.406633,-0.0326 -1.406631,-0.031 -1.407149,-0.0289 -1.406634,-0.0274 -1.407149,-0.0253 -1.406631,-0.0233 -1.40715,-0.0217 -1.406633,-0.0196 -1.407149,-0.0176 -1.40715,-0.016 -1.407149,-0.014 -1.40715,-0.0119 -1.40664,-0.0103 -1.40716,-0.009 -1.40716,-0.006 -1.40715,-0.005 -1.40716,-0.003 -1.40716,-10e-4 -0.57671,5.3e-4 -1.40714,0.002 -1.40664,0.004 -1.40714,0.005 -1.40715,0.008 -1.40715,0.009 -1.40715,0.0114 -1.40715,0.0129 -1.40715,0.0145 -1.40664,0.0171 -1.40714,0.0186 -1.40715,0.0201 -1.40663,0.0222 -1.40715,0.0243 -1.40664,0.0258 -1.40715,0.0279 -1.40663,0.03 -1.40663,0.0315 -1.40663,0.0336 -0.55656,0.014 v 147.80233 h 560.91666 z"
       sodipodi:nodetypes="ccccccccccccccccccccccccccccccccccccccccccccccccccccccccccccccccccccccccccccccccccccccccccccccccccccccccccccccccccccccccccccccccccccccccccccccccccccccccccccccccccccccccccccccccccccccccccccccccccccccccccccccccccccccccccccccccccccccccccccccccccccccccccccccccccccccccccccccccccccccccccccccccccccccccccccccccccccccccccccccccccccccccccccccccccccccccccccccccccccccccccccccccccccccccccccccccccccccccccccccccccccccccccccccccccccccc"
       inkscape:export-xdpi="100000"
       inkscape:export-ydpi="100000" />
    <path
       id="path1498"
       style="fill:#ffffff;fill-opacity:1;stroke:#000000;stroke-width:1;stroke-miterlimit:4;stroke-dasharray:none;stroke-opacity:1;paint-order:markers stroke fill"
       d="m -135.46672,-1015.9989 v 233.19669 l 0.55656,-0.014 1.40663,-0.0336 1.40663,-0.0315 1.40663,-0.03 1.40715,-0.0279 1.40664,-0.0258 1.40715,-0.0243 1.40663,-0.0222 1.40715,-0.0201 1.40714,-0.0186 1.40664,-0.0171 1.40715,-0.0145 1.40715,-0.0129 1.40715,-0.0114 1.40715,-0.009 1.40715,-0.008 1.40714,-0.005 1.40664,-0.004 1.40714,-0.002 0.57671,-5.3e-4 1.40716,10e-4 1.40716,0.003 1.40715,0.005 1.40716,0.006 1.40716,0.009 1.40664,0.0103 1.40715,0.0119 1.407149,0.014 1.40715,0.016 1.407149,0.0176 1.406633,0.0196 1.40715,0.0217 1.406631,0.0233 1.407149,0.0253 1.406634,0.0274 1.407149,0.0289 1.406631,0.031 1.406633,0.0326 1.406634,0.0346 1.40663,0.0362 1.406634,0.0387 1.406633,0.0398 1.406631,0.0424 1.406115,0.0439 1.406634,0.046 1.406114,0.0475 1.406118,0.0496 1.406115,0.0512 1.406115,0.0537 1.406117,0.0548 1.406115,0.0574 1.405599,0.0589 1.406115,0.0605 1.405599,0.063 1.405599,0.0641 1.405599,0.0667 1.405599,0.0682 1.405083,0.0703 1.405599,0.0718 1.405083,0.0739 1.40508,0.076 1.405083,0.0775 1.404564,0.0796 1.404568,0.0811 1.40508,0.0832 1.404567,0.0853 1.404048,0.0868 1.404565,0.0889 1.404048,0.0904 1.404049,0.0925 1.404048,0.0946 1.403533,0.0961 1.404049,0.0982 1.403532,0.10025 1.403532,0.10181 1.403015,0.10388 1.403015,0.10541 1.403015,0.1075 1.403015,0.10904 1.402498,0.11162 1.402499,0.11264 1.402498,0.11525 1.402499,0.11679 1.401981,0.11834 1.401982,0.12092 1.401983,0.12247 1.401465,0.12401 1.401466,0.1261 1.400949,0.12817 1.401465,0.1297 1.4009488,0.13176 1.4004314,0.13335 1.4009482,0.13539 1.4004311,0.13745 1.3999146,0.13901 1.3999147,0.14108 1.39991432,0.14314 1.39991451,0.1447 1.39939817,0.14623 1.3993961,0.14883 1.3988801,0.15039 1.3988804,0.15192 1.3983641,0.15399 1.3988791,0.15608 1.3978474,0.15761 1.398364,0.15968 1.397848,0.16123 1.397331,0.16381 1.39733,0.16486 1.397331,0.1669 1.396813,0.16899 1.396815,0.17105 1.396296,0.17259 1.396299,0.17415 1.396296,0.17674 1.39578,0.17827 1.395264,0.17984 1.395265,0.1819 1.395264,0.18397 1.394746,0.18552 1.394746,0.18706 1.394232,0.18966 1.393711,0.19121 1.39423,0.19275 1.393198,0.19481 1.393714,0.19691 1.392679,0.19843 1.392679,0.2005 1.39268,0.20257 1.392163,0.20413 1.392164,0.20566 1.391647,0.20825 1.391129,0.20929 1.391129,0.21187 1.391129,0.21344 1.390613,0.21498 1.390097,0.21703 1.390097,0.21911 1.389578,0.22066 1.389063,0.22273 1.389578,0.22426 1.388546,0.22635 1.388547,0.22841 1.388028,0.22995 1.388028,0.23204 1.387512,0.23357 1.387512,0.23564 1.38648,0.2372 1.386996,0.23926 1.385962,0.24133 1.385961,0.24289 1.385962,0.24442 1.385446,0.24702 1.384927,0.24804 1.384413,0.25064 1.384411,0.25218 1.383896,0.25373 1.383892,0.2558 1.383379,0.25786 1.382861,0.25943 1.382345,0.26146 1.382344,0.26305 1.382345,0.26508 1.381312,0.26665 1.381301,0.26874 1.380784,0.27027 1.380271,0.27284 1.380271,0.2739 1.379754,0.27593 1.379754,0.27802 1.37873,0.27959 1.37872,0.28162 1.37821,0.28318 1.37821,0.28525 1.37718,0.28734 1.37718,0.28887 1.37666,0.29041 1.37666,0.29249 1.37562,0.29457 1.37563,0.29609 1.37563,0.29819 1.37459,0.29972 1.37459,0.30128 1.37356,0.30384 1.37356,0.30541 1.37356,0.30695 1.37253,0.30903 1.37252,0.31057 1.37201,0.31266 1.3715,0.31469 1.37097,0.31628 1.37046,0.3178 1.37046,0.31988 1.36994,0.32194 1.36943,0.32351 1.36891,0.32554 1.36839,0.32713 1.36839,0.32864 1.36736,0.33126 1.36736,0.33229 1.36684,0.33433 1.36632,0.33641 1.36581,0.33798 1.36529,0.34002 1.36529,0.34211 1.36426,0.34313 1.36426,0.34571 1.36374,0.34673 1.36323,0.34936 1.3627,0.35086 1.36219,0.35246 1.36168,0.35448 1.36115,0.35605 1.36064,0.35812 1.36065,0.35967 1.3596,0.36174 1.35961,0.36327 1.35857,0.36537 1.35858,0.36742 1.35754,0.36844 1.35754,0.37105 1.35702,0.37258 1.3565,0.37415 1.35599,0.37619 1.35548,0.37777 1.35495,0.37981 1.35393,0.38137 1.35392,0.38343 1.3534,0.385 1.35289,0.38706 1.35238,0.38862 1.35185,0.39015 1.35134,0.39272 1.35082,0.39378 1.35031,0.39584 1.34978,0.39791 1.34928,0.39947 1.34875,0.401 1.34824,0.40307 1.3472,0.40515 1.34721,0.40669 1.34669,0.40826 1.34565,0.41031 1.34565,0.41185 1.34514,0.41392 1.34411,0.4155 1.34358,0.41754 1.34359,0.4191 1.34255,0.42116 1.34204,0.4227 1.34152,0.42426 1.341,0.42635 1.34049,0.42839 1.33997,0.42944 1.33894,0.43201 1.33894,0.43305 1.3379,0.43563 1.3379,0.43667 1.33687,0.43873 1.33635,0.4408 1.33584,0.44236 1.3348,0.44389 1.3348,0.44595 1.33377,0.44752 1.33377,0.44961 1.33273,0.45111 1.33222,0.4527 1.3317,0.45474 1.33067,0.45683 1.33067,0.45836 1.32964,0.45993 1.32911,0.46199 1.3286,0.46352 1.32809,0.46511 1.32705,0.46715 1.32705,0.46871 1.32602,0.47077 1.3255,0.47231 1.32447,0.4744 1.32446,0.47593 1.32344,0.4775 1.32291,0.47955 1.3224,0.48112 1.32137,0.48316 1.32138,0.48474 1.32032,0.48628 1.31929,0.48834 1.31929,0.48988 1.31829,0.49143 1.31773,0.49353 1.31725,0.49556 1.3162,0.49663 1.31567,0.49919 1.31516,0.50022 1.31466,0.50231 1.31361,0.50385 1.3131,0.50591 1.31257,0.50744 1.31157,0.50903 1.31103,0.51107 1.31051,0.51263 1.30948,0.51469 1.30897,0.51626 1.30844,0.51779 1.30792,0.51935 1.30691,0.52141 1.30585,0.52348 1.30588,0.52451 1.30481,0.5266 1.30432,0.52864 1.30329,0.5302 1.30275,0.53176 1.30172,0.53329 1.30175,0.53539 1.30017,0.53692 1.30019,0.53898 1.29913,0.54052 1.29862,0.5421 1.2976,0.54364 1.29709,0.5457 1.29604,0.54724 1.29553,0.54933 1.295,0.55086 1.294,0.55242 1.29344,0.55449 1.29244,0.55552 1.29191,0.55811 1.2914,0.55915 1.29035,0.5612 1.28934,0.56275 1.28932,0.56483 1.28778,0.56586 1.28725,0.56791 1.28674,0.56999 1.28625,0.57155 1.28466,0.57309 1.28468,0.57465 1.28365,0.57671 1.2826,0.57774 1.28209,0.58031 1.28106,0.58137 1.28056,0.58344 1.28,0.58496 1.27899,0.58706 1.27797,0.58806 1.27743,0.59016 1.2764,0.59221 1.27591,0.59325 1.27486,0.59531 1.27434,0.59685 1.27331,0.59894 1.27278,0.59997 1.27177,0.60203 1.27124,0.60357 1.27019,0.60566 1.26918,0.60719 1.26865,0.60875 1.26815,0.61029 1.26658,0.61185 1.26659,0.61391 1.26505,0.61547 1.26453,0.61754 1.26399,0.61857 1.26246,0.62063 1.26246,0.62217 1.2609,0.62376 1.26039,0.62579 1.25987,0.62735 1.25883,0.62889 1.25781,0.63048 1.25677,0.63251 1.25627,0.63355 1.25573,0.6356 1.25418,0.6377 1.25368,0.63873 1.25314,0.64077 1.25162,0.64183 1.25108,0.64442 1.25055,0.64542 1.24955,0.64699 1.24851,0.64907 1.24746,0.65059 1.24696,0.65217 1.24592,0.65421 1.24489,0.65526 1.24436,0.65733 1.24333,0.65887 1.2423,0.66043 1.2418,0.66249 1.24073,0.66352 1.23973,0.66561 1.23868,0.66712 1.23817,0.66871 1.23714,0.67024 1.2361,0.67231 1.23558,0.67334 1.23455,0.67542 1.23351,0.67697 1.23248,0.67902 1.23196,0.68006 1.23041,0.6816 1.22992,0.68368 1.22939,0.68524 1.22782,0.68678 1.22732,0.68832 1.22627,0.6904 1.22526,0.69143 1.22473,0.6935 1.22317,0.69504 1.22266,0.69609 1.22164,0.69866 1.22113,0.69972 1.21954,0.70122 1.21907,0.70332 1.21801,0.70437 1.21698,0.70641 1.21594,0.70797 1.21492,0.70951 0.20256,0.11885 v -377.73581 z"
       sodipodi:nodetypes="ccccccccccccccccccccccccccccccccccccccccccccccccccccccccccccccccccccccccccccccccccccccccccccccccccccccccccccccccccccccccccccccccccccccccccccccccccccccccccccccccccccccccccccccccccccccccccccccccccccccccccccccccccccccccccccccccccccccccccccccccccccccccccccccccccccccccccccccccccccccccccccccccccccccccccccccccccccccccccccccccccccccccccccccccccccccccccccccccccccccccccccccccccccccccccccccccccccccccccccccccccccccccccccccccccccccc"
       inkscape:export-xdpi="100000"
       inkscape:export-ydpi="100000"
       inkscape:export-filename="c:\sa\papers\My\CodeProject\April1st-2023-Earth-Curvature\article\waves-angles.png" />
    <circle
       style="fill:#ffff00;fill-opacity:1;stroke:#000000;stroke-width:0.4;stroke-miterlimit:4;stroke-dasharray:none;stroke-opacity:1;paint-order:markers stroke fill"
       id="path6205"
       cx="207.73546"
       cy="-734.11487"
       r="3.3072915" />
    <rect
       style="fill:none;stroke:#000000;stroke-width:2;stroke-miterlimit:4;stroke-dasharray:none;stroke-opacity:1;paint-order:markers stroke fill"
       id="rect1442-9"
       width="560.91669"
       height="380.99997"
       x="-135.46658"
       y="-1016.0012"
       inkscape:export-xdpi="100000"
       inkscape:export-ydpi="100000" />
    <circle
       style="fill:#00b500;fill-opacity:1;stroke:none;stroke-width:1.4;stroke-miterlimit:4;stroke-dasharray:none;stroke-opacity:1;paint-order:markers stroke fill"
       id="path6205-6"
       cx="134.744"
       cy="-783.14551"
       r="3.3072917" />
    <circle
       style="fill:#00b500;fill-opacity:1;stroke:none;stroke-width:1.4;stroke-miterlimit:4;stroke-dasharray:none;stroke-opacity:1;paint-order:markers stroke fill"
       id="path6205-6-1"
       cx="152.15582"
       cy="-783.14551"
       r="3.3072917" />
    <path
       style="fill:none;stroke:#f70000;stroke-width:2;stroke-linecap:butt;stroke-linejoin:miter;stroke-miterlimit:4;stroke-dasharray:none;stroke-opacity:1"
       d="M -135.46672,-783.16654 H 425.44994"
       id="path1503"
       sodipodi:nodetypes="cc"
       inkscape:export-xdpi="100000"
       inkscape:export-ydpi="100000" />
    <circle
       style="fill:#ffff00;fill-opacity:1;stroke:#000000;stroke-width:0.4;stroke-miterlimit:4;stroke-dasharray:none;stroke-opacity:1;paint-order:markers stroke fill"
       id="path6205-4"
       cx="257.54196"
       cy="-717.50354"
       r="3.3072917" />
    <path
       style="fill:none;stroke:#000000;stroke-width:1.4;stroke-linecap:butt;stroke-linejoin:miter;stroke-miterlimit:4;stroke-dasharray:none;stroke-opacity:1"
       d="m 277.28328,-687.91654 v 0 l -412.75,-275.16587 423.33333,264.58252 v 0"
       id="path1505"
       sodipodi:nodetypes="ccccc"
       inkscape:export-xdpi="100000"
       inkscape:export-ydpi="100000" />
    <path
       style="fill:none;stroke:#000000;stroke-width:0.6;stroke-linecap:butt;stroke-linejoin:miter;stroke-miterlimit:4;stroke-dasharray:none;stroke-opacity:1"
       d="m 277.28327,-768.60253 -19.67716,51.01487 v 0"
       id="path1509"
       sodipodi:nodetypes="ccc"
       inkscape:export-xdpi="100000"
       inkscape:export-ydpi="100000" />
    <path
       style="fill:none;stroke:#000000;stroke-width:0.6;stroke-linecap:butt;stroke-linejoin:miter;stroke-miterlimit:4;stroke-dasharray:none;stroke-opacity:1"
       d="m 245.2222,-666.74989 47.9363,-74.08333 v 0"
       id="path1543"
       sodipodi:nodetypes="ccc"
       inkscape:export-xdpi="100000"
       inkscape:export-ydpi="100000" />
    <path
       style="fill:none;stroke:#000000;stroke-width:0.6;stroke-linecap:butt;stroke-linejoin:miter;stroke-miterlimit:4;stroke-dasharray:none;stroke-opacity:1"
       d="M -135.46671,-963.08327 H 343.95831"
       id="path1545"
       sodipodi:nodetypes="cc"
       inkscape:export-xdpi="100000"
       inkscape:export-ydpi="100000" />
    <path
       style="fill:none;stroke:#000000;stroke-width:0.6;stroke-linecap:butt;stroke-linejoin:miter;stroke-miterlimit:4;stroke-dasharray:none;stroke-opacity:1;marker-start:url(#marker2349)"
       d="m 273.37973,-710.37376 13.69601,-21.16655 v 0"
       id="path1543-6"
       sodipodi:nodetypes="ccc"
       inkscape:export-xdpi="100000"
       inkscape:export-ydpi="100000" />
    <path
       style="fill:none;stroke:#000000;stroke-width:0.600001;stroke-linecap:butt;stroke-linejoin:miter;stroke-miterlimit:4;stroke-dasharray:none;stroke-opacity:1;marker-start:url(#Arrow1Lstart)"
       d="m 263.37391,-694.75787 -13.69601,21.16655 v 0"
       id="path1543-6-6"
       sodipodi:nodetypes="ccc"
       inkscape:export-xdpi="100000"
       inkscape:export-ydpi="100000" />
    <circle
       style="fill:none;fill-opacity:1;stroke:#000000;stroke-width:0.600001;stroke-miterlimit:4;stroke-dasharray:none;stroke-opacity:1;marker-end:url(#Arrow1Lend);paint-order:markers stroke fill"
       id="path3725"
       sodipodi:type="arc"
       sodipodi:cx="-129.41916"
       sodipodi:cy="-963.08331"
       sodipodi:rx="52.916664"
       sodipodi:ry="52.916664"
       sodipodi:start="0"
       sodipodi:end="0.59341195"
       sodipodi:arc-type="arc"
       d="m -76.502495,-963.08331 a 52.916664,52.916664 0 0 1 -9.046761,29.59062"
       sodipodi:open="true"
       inkscape:export-xdpi="100000"
       inkscape:export-ydpi="100000" />
    <path
       id="path5209"
       style="fill:none;fill-opacity:1;stroke:#000000;stroke-width:0.600001;stroke-miterlimit:4;stroke-dasharray:none;stroke-opacity:1;marker-start:url(#marker4195);paint-order:markers stroke fill"
       d="m 232.43775,-735.04054 c 7.762,-12.23096 22.57077,-16.22031 36.09465,-11.02898"
       sodipodi:nodetypes="cc"
       inkscape:export-xdpi="100000"
       inkscape:export-ydpi="100000" />
    <path
       style="fill:none;stroke:#000000;stroke-width:0.599999;stroke-linecap:butt;stroke-linejoin:miter;stroke-miterlimit:4;stroke-dasharray:none;stroke-opacity:1;marker-start:url(#marker5447)"
       d="m 256.87719,-715.69792 -76.02991,197.11459 v 0"
       id="path1509-5"
       sodipodi:nodetypes="ccc"
       inkscape:export-xdpi="100000"
       inkscape:export-ydpi="100000" />
    <path
       style="fill:none;stroke:#000000;stroke-width:0.599998;stroke-linecap:butt;stroke-linejoin:miter;stroke-miterlimit:4;stroke-dasharray:none;stroke-opacity:1;marker-start:url(#marker5447-5)"
       d="m -135.46665,-783.16667 v 264.58334"
       id="path1509-5-1"
       sodipodi:nodetypes="cc"
       inkscape:export-xdpi="100000"
       inkscape:export-ydpi="100000" />
    <g
       id="g984">
      <rect
         style="fill:#000000;fill-opacity:1;stroke:#000000;stroke-width:0.600002;stroke-miterlimit:4;stroke-dasharray:none;stroke-opacity:1;paint-order:markers stroke fill"
         id="rect6095"
         width="7.0555573"
         height="21.166668"
         x="-145.14287"
         y="-973.66669"
         inkscape:export-xdpi="100000"
         inkscape:export-ydpi="100000" />
      <rect
         style="fill:#000000;fill-opacity:1;stroke:#000000;stroke-width:0.600002;stroke-miterlimit:4;stroke-dasharray:none;stroke-opacity:1;paint-order:markers stroke fill"
         id="rect6097"
         width="5.291667"
         height="10.583334"
         x="-136.82744"
         y="-968.375"
         inkscape:export-xdpi="100000"
         inkscape:export-ydpi="100000" />
    </g>
    <text
       xml:space="preserve"
       style="font-size:22.5778px;line-height:1.25;font-family:sans-serif;-inkscape-font-specification:sans-serif;letter-spacing:0px;word-spacing:0px;stroke-width:0.264583"
       x="-132.29164"
       y="-746.88153"
       id="text6107"
       inkscape:export-xdpi="100000"
       inkscape:export-ydpi="100000"><tspan
         sodipodi:role="line"
         id="tspan6105"
         x="-132.29164"
         y="-746.88153"
         style="font-size:22.5778px;stroke-width:0.264583">R</tspan></text>
    <text
       xml:space="preserve"
       style="font-size:22.5778px;line-height:1.25;font-family:sans-serif;-inkscape-font-specification:sans-serif;letter-spacing:0px;word-spacing:0px;stroke-width:0.264583"
       x="214.69051"
       y="-650.11926"
       id="text6107-7"
       inkscape:export-xdpi="100000"
       inkscape:export-ydpi="100000"><tspan
         sodipodi:role="line"
         id="tspan6105-3"
         x="214.69051"
         y="-650.11926"
         style="font-size:22.5778px;stroke-width:0.264583">R</tspan></text>
    <text
       xml:space="preserve"
       style="font-size:22.5778px;line-height:1.25;font-family:sans-serif;-inkscape-font-specification:sans-serif;letter-spacing:0px;word-spacing:0px;stroke-width:0.264583"
       x="-76.351189"
       y="-939.64886"
       id="text6129"
       inkscape:export-xdpi="100000"
       inkscape:export-ydpi="100000"><tspan
         sodipodi:role="line"
         id="tspan6127"
         x="-76.351189"
         y="-939.64886"
         style="font-size:22.5778px;stroke-width:0.264583">α</tspan></text>
    <text
       xml:space="preserve"
       style="font-size:22.5778px;line-height:1.25;font-family:sans-serif;-inkscape-font-specification:sans-serif;letter-spacing:0px;word-spacing:0px;stroke-width:0.264583"
       x="241.60225"
       y="-752.70166"
       id="text6151"
       inkscape:export-xdpi="100000"
       inkscape:export-ydpi="100000"><tspan
         sodipodi:role="line"
         id="tspan6149"
         x="241.60225"
         y="-752.70166"
         style="font-size:22.5778px;stroke-width:0.264583">β</tspan></text>
    <text
       xml:space="preserve"
       style="font-size:22.5778px;line-height:1.25;font-family:sans-serif;-inkscape-font-specification:sans-serif;letter-spacing:0px;word-spacing:0px;stroke-width:0.264583"
       x="278.94656"
       y="-682.62482"
       id="text6155"
       inkscape:export-xdpi="100000"
       inkscape:export-ydpi="100000"><tspan
         sodipodi:role="line"
         id="tspan6153"
         x="278.94656"
         y="-682.62482"
         style="font-size:22.5778px;stroke-width:0.264583">γ</tspan></text>
    <text
       xml:space="preserve"
       style="font-size:22.5778px;line-height:1.25;font-family:sans-serif;-inkscape-font-specification:sans-serif;letter-spacing:0px;word-spacing:0px;stroke-width:0.264583"
       x="-129.26785"
       y="-972.91071"
       id="text6163"
       inkscape:export-xdpi="100000"
       inkscape:export-ydpi="100000"><tspan
         sodipodi:role="line"
         id="tspan6161"
         x="-129.26785"
         y="-972.91071"
         style="font-size:22.5778px;stroke-width:0.264583">Camera</tspan></text>
    <path
       style="fill:none;stroke:#000000;stroke-width:0.6;stroke-linecap:butt;stroke-linejoin:miter;stroke-miterlimit:4;stroke-dasharray:none;stroke-opacity:1;marker-start:url(#marker975);marker-end:url(#marker5589)"
       d="m 338.66664,-961.94941 v 176.89286"
       id="path971"
       sodipodi:nodetypes="cc" />
    <text
       xml:space="preserve"
       style="font-size:22.5778px;line-height:1.25;font-family:sans-serif;-inkscape-font-specification:sans-serif;letter-spacing:0px;word-spacing:0px;stroke-width:0.264583"
       x="344.11063"
       y="-873.58081"
       id="text6129-7"
       inkscape:export-xdpi="100000"
       inkscape:export-ydpi="100000"><tspan
         sodipodi:role="line"
         id="tspan6127-9"
         x="344.11063"
         y="-873.58081"
         style="font-size:22.5778px;stroke-width:0.264583">h</tspan></text>
  </g>
</svg>
