<?xml version="1.0" encoding="UTF-8" standalone="no"?>
<svg
   xmlns:dc="http://purl.org/dc/elements/1.1/"
   xmlns:cc="http://creativecommons.org/ns#"
   xmlns:rdf="http://www.w3.org/1999/02/22-rdf-syntax-ns#"
   xmlns:svg="http://www.w3.org/2000/svg"
   xmlns="http://www.w3.org/2000/svg"
   xmlns:sodipodi="http://sodipodi.sourceforge.net/DTD/sodipodi-0.dtd"
   xmlns:inkscape="http://www.inkscape.org/namespaces/inkscape"
   version="1.1"
   id="svg1582"
   width="151.20938mm"
   height="87.709373mm"
   viewBox="0 0 571.50003 331.49999"
   sodipodi:docname="wave.svg"
   inkscape:version="1.0.1 (3bc2e813f5, 2020-09-07)"
   inkscape:export-filename="C:\sa\papers\My\CodeProject\April1st-2023-Earth-Curvature\article\wave.png"
   inkscape:export-xdpi="107.51"
   inkscape:export-ydpi="107.51">
  <metadata
     id="metadata1588">
    <rdf:RDF>
      <cc:Work
         rdf:about="">
        <dc:format>image/svg+xml</dc:format>
        <dc:type
           rdf:resource="http://purl.org/dc/dcmitype/StillImage" />
        <dc:title />
      </cc:Work>
    </rdf:RDF>
  </metadata>
  <defs
     id="defs1586">
    <marker
       style="overflow:visible"
       id="marker2532"
       refX="0"
       refY="0"
       orient="auto"
       inkscape:stockid="Arrow1Mend"
       inkscape:isstock="true">
      <path
         transform="matrix(-0.4,0,0,-0.4,-4,0)"
         style="fill:#000000;fill-opacity:1;fill-rule:evenodd;stroke:#000000;stroke-width:1pt;stroke-opacity:1"
         d="M 0,0 5,-5 -12.5,0 5,5 Z"
         id="path2530" />
    </marker>
    <marker
       style="overflow:visible"
       id="marker2504"
       refX="0"
       refY="0"
       orient="auto"
       inkscape:stockid="Arrow1Mstart"
       inkscape:isstock="true">
      <path
         transform="matrix(0.4,0,0,0.4,4,0)"
         style="fill:#000000;fill-opacity:1;fill-rule:evenodd;stroke:#000000;stroke-width:1pt;stroke-opacity:1"
         d="M 0,0 5,-5 -12.5,0 5,5 Z"
         id="path2502" />
    </marker>
    <marker
       style="overflow:visible"
       id="Arrow1Mend"
       refX="0"
       refY="0"
       orient="auto"
       inkscape:stockid="Arrow1Mend"
       inkscape:isstock="true">
      <path
         transform="matrix(-0.4,0,0,-0.4,-4,0)"
         style="fill:#000000;fill-opacity:1;fill-rule:evenodd;stroke:#000000;stroke-width:1pt;stroke-opacity:1"
         d="M 0,0 5,-5 -12.5,0 5,5 Z"
         id="path2207" />
    </marker>
    <marker
       style="overflow:visible"
       id="Arrow1Mstart"
       refX="0"
       refY="0"
       orient="auto"
       inkscape:stockid="Arrow1Mstart"
       inkscape:isstock="true">
      <path
         transform="matrix(0.4,0,0,0.4,4,0)"
         style="fill:#000000;fill-opacity:1;fill-rule:evenodd;stroke:#000000;stroke-width:1pt;stroke-opacity:1"
         d="M 0,0 5,-5 -12.5,0 5,5 Z"
         id="path2204" />
    </marker>
  </defs>
  <sodipodi:namedview
     pagecolor="#ffffff"
     bordercolor="#000000"
     borderopacity="1"
     objecttolerance="10"
     gridtolerance="10"
     guidetolerance="10"
     inkscape:pageopacity="1"
     inkscape:pageshadow="2"
     inkscape:window-width="1920"
     inkscape:window-height="1027"
     id="namedview1584"
     showgrid="true"
     units="mm"
     fit-margin-top="0"
     fit-margin-left="0"
     fit-margin-right="0"
     fit-margin-bottom="0"
     inkscape:zoom="1.6065466"
     inkscape:cx="238.04572"
     inkscape:cy="119.34421"
     inkscape:window-x="-8"
     inkscape:window-y="-8"
     inkscape:window-maximized="1"
     inkscape:current-layer="g1590"
     inkscape:document-rotation="0">
    <inkscape:grid
       type="xygrid"
       id="grid2159"
       originx="10.75"
       originy="120.74999" />
  </sodipodi:namedview>
  <g
     inkscape:groupmode="layer"
     inkscape:label="Image"
     id="g1590"
     transform="translate(10.75,120.75004)">
    <path
       style="fill:none;stroke:#c13e3e;stroke-width:1.5;stroke-linecap:butt;stroke-linejoin:miter;stroke-miterlimit:4;stroke-dasharray:none;stroke-opacity:1"
       d="M 377.40199,185 C 540.88026,-49.999997 540.88026,-49.999997 540.88026,-49.999997"
       id="path2163" />
    <path
       style="fill:none;stroke:#0e4381;stroke-width:4;stroke-linecap:butt;stroke-linejoin:miter;stroke-miterlimit:4;stroke-dasharray:none;stroke-opacity:1"
       d="m 3.0809859,31.25 c 0,0 8.9678731,2.123651 11.0035211,5.721831 24.334844,43.01389 40.095954,119.769969 69.982394,140.404929 18.272449,12.61614 67.339429,8.75634 79.225349,2.2007 25.61548,-14.12812 52.63188,-108.798482 65.29188,-134.469501 4.05726,-8.22701 12.1588,-15.847791 17.4546,-16.058663 8.26815,-0.329227 15.67753,7.793763 19.80634,14.964789 27.05451,46.988998 46.00192,121.545935 64.5184,133.985125 13.61831,9.14865 70.24818,10.6343 84.68935,-2.82315 C 437.84722,153.9344 463.4641,63.412969 480.6338,40.933099 486.87741,33.225031 490,30 500,30"
       id="path2157"
       sodipodi:nodetypes="csssssssscc" />
    <path
       style="fill:none;stroke:#c13e3e;stroke-width:1.5;stroke-linecap:butt;stroke-linejoin:miter;stroke-miterlimit:4;stroke-dasharray:none;stroke-opacity:1"
       d="M 95,180 315,-50"
       id="path2167" />
    <path
       style="fill:none;stroke:#000000;stroke-width:1px;stroke-linecap:butt;stroke-linejoin:miter;stroke-opacity:1"
       d="M 500,59.99995 V -75 v 0"
       id="path2169"
       sodipodi:nodetypes="ccc" />
    <path
       style="fill:none;stroke:#000000;stroke-width:1px;stroke-linecap:butt;stroke-linejoin:miter;stroke-opacity:1"
       d="M 246.26531,60.000001 C 246.26531,-75 246.26531,-75 246.26531,-75"
       id="path2171" />
    <path
       style="fill:none;stroke:#000000;stroke-width:1px;stroke-linecap:butt;stroke-linejoin:miter;stroke-opacity:1;marker-start:url(#Arrow1Mstart);marker-end:url(#Arrow1Mend)"
       d="m 247.7993,-65 c 250,0 250,0 250,0"
       id="path2173" />
    <path
       style="fill:none;stroke:#000000;stroke-width:1px;stroke-linecap:butt;stroke-linejoin:miter;stroke-opacity:1"
       d="M 234.2653,59.999999 C 234.2653,-105 234.2653,-105 234.2653,-105"
       id="path2171-9" />
    <path
       style="fill:none;stroke:#000000;stroke-width:1px;stroke-linecap:butt;stroke-linejoin:miter;stroke-opacity:1"
       d="M 478.7143,59.999999 C 478.7143,-105 478.7143,-105 478.7143,-105"
       id="path2171-1" />
    <path
       style="fill:none;stroke:#000000;stroke-width:1px;stroke-linecap:butt;stroke-linejoin:miter;stroke-opacity:1;marker-start:url(#marker2504);marker-end:url(#marker2532)"
       d="M 236.78955,-95.00005 476.22548,-95"
       id="path2196"
       sodipodi:nodetypes="cc" />
    <rect
       style="fill:none;stroke:#0e4381;stroke-width:1.5;stroke-miterlimit:4;stroke-dasharray:none;stroke-opacity:1;paint-order:markers stroke fill"
       id="rect2702"
       width="570"
       height="330"
       x="-10"
       y="-120.00004" />
  </g>
</svg>
