<?xml version="1.0" encoding="UTF-8" standalone="no"?>
<!-- Created with Inkscape (http://www.inkscape.org/) -->

<svg
   width="643.00006"
   height="922.99988"
   id="svg2"
   version="1.1"
   xmlns:xlink="http://www.w3.org/1999/xlink"
   xmlns="http://www.w3.org/2000/svg"
   xmlns:svg="http://www.w3.org/2000/svg"
   xmlns:rdf="http://www.w3.org/1999/02/22-rdf-syntax-ns#"
   xmlns:cc="http://creativecommons.org/ns#"
   xmlns:dc="http://purl.org/dc/elements/1.1/">
  <defs
     id="defs4">
    <linearGradient
       id="linearGradient5673">
      <stop
         style="stop-color:#5d0d42;stop-opacity:1"
         offset="0"
         id="stop5675" />
      <stop
         style="stop-color:#9a876f;stop-opacity:1"
         offset="1"
         id="stop5677" />
    </linearGradient>
    <marker
       orient="auto"
       refY="0"
       refX="0"
       id="Arrow1Lend"
       style="overflow:visible">
      <path
         id="path4654"
         d="M 0,0 5,-5 -12.5,0 5,5 Z"
         style="fill-rule:evenodd;stroke:#000000;stroke-width:1pt"
         transform="matrix(-0.8,0,0,-0.8,-10,0)" />
    </marker>
    <filter
       id="filter5915"
       x="-0.6466823"
       width="2.2933646"
       y="-1.4788765"
       height="3.957753"
       color-interpolation-filters="sRGB">
      <feGaussianBlur
         stdDeviation="12.524439"
         id="feGaussianBlur5917" />
    </filter>
    <filter
       id="filter5919"
       x="-0.42361522"
       width="1.8472304"
       y="-0.64767544"
       height="2.2953509"
       color-interpolation-filters="sRGB">
      <feGaussianBlur
         stdDeviation="12.524439"
         id="feGaussianBlur5921" />
    </filter>
    <filter
       id="filter5923"
       x="-0.16286437"
       width="1.3257287"
       y="-0.2420169"
       height="1.4840338"
       color-interpolation-filters="sRGB">
      <feGaussianBlur
         stdDeviation="12.524439"
         id="feGaussianBlur5925" />
    </filter>
    <filter
       id="filter5927"
       x="-0.30976933"
       width="1.6195387"
       y="-0.54043345"
       height="2.0808669"
       color-interpolation-filters="sRGB">
      <feGaussianBlur
         stdDeviation="12.524439"
         id="feGaussianBlur5929" />
    </filter>
    <filter
       id="filter5931"
       x="-0.14247635"
       width="1.2849527"
       y="-0.20466416"
       height="1.4093283"
       color-interpolation-filters="sRGB">
      <feGaussianBlur
         stdDeviation="12.524439"
         id="feGaussianBlur5933" />
    </filter>
    <filter
       id="filter5942"
       x="-0.24439262"
       width="1.4887852"
       y="-0.35106464"
       height="1.7021293"
       color-interpolation-filters="sRGB">
      <feGaussianBlur
         stdDeviation="8.9589892"
         id="feGaussianBlur5944" />
    </filter>
    <linearGradient
       xlink:href="#linearGradient5673"
       id="linearGradient6011"
       gradientUnits="userSpaceOnUse"
       gradientTransform="matrix(0.80184468,0,0,0.80184468,-364.59711,-489.99309)"
       x1="-1180"
       y1="132.36218"
       x2="-1240"
       y2="132.36218" />
    <linearGradient
       xlink:href="#linearGradient5673"
       id="linearGradient6756"
       gradientUnits="userSpaceOnUse"
       gradientTransform="matrix(0.80184468,0,0,0.80184468,-365.63715,-416.63475)"
       x1="-1180"
       y1="132.36218"
       x2="-1240"
       y2="132.36218" />
    <linearGradient
       xlink:href="#linearGradient5673"
       id="linearGradient6786"
       gradientUnits="userSpaceOnUse"
       gradientTransform="matrix(0.80184468,0,0,0.80184468,-365.63715,-416.63475)"
       x1="-1180"
       y1="132.36218"
       x2="-1240"
       y2="132.36218" />
  </defs>
  <metadata
     id="metadata7">
    <rdf:RDF>
      <cc:Work
         rdf:about="">
        <dc:format>image/svg+xml</dc:format>
        <dc:type
           rdf:resource="http://purl.org/dc/dcmitype/StillImage" />
      </cc:Work>
    </rdf:RDF>
  </metadata>
  <g
     id="layer1"
     transform="translate(1461.5,429.13779)">
    <rect
       style="opacity:0.460177;fill:none;stroke:#000000;stroke-width:3;stroke-miterlimit:4;stroke-dasharray:none;stroke-dashoffset:0;stroke-opacity:1"
       id="rect6759"
       width="640.00006"
       height="919.99988"
       x="-38.5"
       y="-42.111572"
       transform="translate(-1421.5,-385.52622)" />
    <rect
       style="opacity:1;fill:#fffe62;fill-opacity:1;stroke:#000000;stroke-width:3;stroke-miterlimit:4;stroke-dasharray:none;stroke-opacity:1"
       id="rect6464"
       width="379.99985"
       height="380.00006"
       x="-1420"
       y="-167.63782"
       ry="0" />
    <rect
       style="fill:#b8e1f5;fill-opacity:1;stroke:#000000;stroke-width:3;stroke-miterlimit:4;stroke-dasharray:none;stroke-dashoffset:0;stroke-opacity:1"
       id="rect4615-1-9"
       width="299.63635"
       height="116.7792"
       x="-1377.9607"
       y="54.401161" />
    <rect
       style="opacity:1;fill:#b8e1f5;fill-opacity:1;stroke:#000000;stroke-width:3;stroke-miterlimit:4;stroke-dasharray:none;stroke-dashoffset:0;stroke-opacity:1"
       id="rect4615"
       width="99.96566"
       height="82.822777"
       x="-1380.1255"
       y="-108.62064" />
    <text
       xml:space="preserve"
       style="font-style:normal;font-weight:normal;line-height:0%;font-family:sans-serif;letter-spacing:0px;word-spacing:0px;fill:#000000;fill-opacity:1;stroke:none"
       x="-1371.5782"
       y="-52.892849"
       id="text4617"><tspan
         id="tspan4619"
         x="-1371.5782"
         y="-52.892849"
         style="font-size:40px;line-height:1.25;font-family:sans-serif">ADC</tspan></text>
    <rect
       style="opacity:1;fill:#ff470e;fill-opacity:1;stroke:#000000;stroke-width:3;stroke-miterlimit:4;stroke-dasharray:none;stroke-dashoffset:0;stroke-opacity:1"
       id="rect4615-1"
       width="116.86946"
       height="82.583717"
       x="-1198.006"
       y="-108.50108" />
    <text
       xml:space="preserve"
       style="font-style:normal;font-weight:normal;line-height:0%;font-family:sans-serif;letter-spacing:0px;word-spacing:0px;fill:#000000;fill-opacity:1;stroke:none"
       x="-1182.9697"
       y="-52.892818"
       id="text4617-7"><tspan
         id="tspan4619-4"
         x="-1182.9697"
         y="-52.892818"
         style="font-size:40px;line-height:1.25;font-family:sans-serif">RFM</tspan></text>
    <path
       style="fill:none;stroke:#000000;stroke-width:3;stroke-linecap:butt;stroke-linejoin:miter;stroke-miterlimit:4;stroke-dasharray:none;stroke-opacity:1;marker-start:none;marker-mid:none;marker-end:url(#Arrow1Lend)"
       d="m -1280,-67.637817 c 80,0 80,0 80,0"
       id="path4645" />
    <g
       id="g6774"
       transform="translate(0,-4)">
      <rect
         y="-261.54291"
         x="-1376.8389"
         height="79.177345"
         width="128.15045"
         id="rect4615-0"
         style="fill:#afb9d4;fill-opacity:0.719577;stroke:#000000;stroke-width:3;stroke-miterlimit:4;stroke-dasharray:none;stroke-dashoffset:0;stroke-opacity:1" />
      <path
         id="path5655"
         d="m -1359.9245,-262.39016 16.0369,-80.18447 h 16.0369 l 16.0369,80.18447"
         style="fill:url(#linearGradient6786);fill-opacity:1;stroke:#000000;stroke-width:3;stroke-linecap:butt;stroke-linejoin:miter;stroke-miterlimit:4;stroke-dasharray:none;stroke-opacity:1" />
      <g
         style="stroke-width:16.352;stroke-miterlimit:4;stroke-dasharray:none;filter:url(#filter5942)"
         transform="matrix(0.18492135,0,0,0.18201791,-1166.343,-472.92675)"
         id="g5935">
        <path
           style="fill:#000000;fill-opacity:1;stroke:none;filter:url(#filter5931)"
           id="path5725"
           d="m -906.01006,672.5251 c 4.87094,-6.48381 8.3995,-13.79657 11.58722,-21.21289 3.26841,-6.98467 5.39433,-14.40017 7.86856,-21.67884 1.08989,-3.88674 3.15154,-7.20876 5.56383,-10.38616 2.29175,-3.45846 5.3981,-6.13457 8.52164,-8.80051 8.56826,-6.72106 17.99054,-12.46197 27.94697,-16.88752 5.06299,-2.48985 10.47674,-4.14784 15.74691,-6.14113 5.57095,-1.96179 11.20875,-3.63892 16.7274,-5.73825 4.82901,-2.10414 9.66778,-4.2044 14.41395,-6.49584 0.85738,-0.30503 1.72698,-0.57763 2.57212,-0.91507 3.11957,-1.24557 2.21594,-1.16711 5.45607,-2.24432 3.05586,-1.01595 6.20903,-1.79149 9.28346,-2.75879 6.92236,-1.98629 13.72412,-4.3542 20.57236,-6.57413 5.4036,-2.36301 11.04914,-4.04811 16.31991,-6.71397 10.50531,-6.19599 -16.96059,9.71106 -12.74574,7.23947 6.93314,-4.06561 13.99813,-7.90573 20.89129,-12.03876 4.83191,-2.89714 -9.75036,5.65073 -14.70624,8.3303 -1.10408,0.59696 2.10777,-1.36401 3.14072,-2.07701 0.93361,-0.64443 1.83845,-1.32959 2.75768,-1.99439 4.1269,-3.01082 8.07992,-6.29016 11.51332,-10.0809 5.58479,-6.8439 5.95325,-5.31458 20.9989,-11.32302 0.70551,-0.28175 1.12766,4.36788 1.14679,4.61876 -0.19657,3.32305 -0.73611,6.64368 -1.31333,9.92439 -0.69878,3.77254 -1.62916,7.49736 -2.32894,11.26913 -0.45982,4.50564 -1.05817,8.97086 -1.99534,13.40388 -0.86938,3.7395 -2.42087,7.25887 -3.4589,10.94798 -1.28857,4.07109 -2.77446,8.08988 -4.79495,11.8556 -2.56985,4.39986 -5.71835,8.41865 -8.90571,12.38031 -3.24796,3.67304 -6.39957,7.42876 -9.51735,11.21305 -3.43202,4.26466 -7.23365,8.18354 -11.36526,11.7681 -3.54843,3.19927 -7.70211,5.52619 -11.73941,8.02417 -59.66771,34.3534 -0.59207,0.31485 -4.55452,2.68268 -8.24283,4.92563 -18.24675,11.63163 -27.95439,15.22818 -4.21487,1.98249 -8.26918,4.02477 -12.85451,4.9633 -4.2829,0.62735 -8.62237,0.5548 -12.93884,0.57316 -4.46991,0.0818 -8.91221,0.74578 -13.37476,1.07031 -4.41296,0.31184 -8.84044,0.31129 -13.26202,0.29267 -5.57363,-0.001 -11.14724,0.003 -16.72085,0.006 -4.3187,0.18861 -8.48198,1.26579 -12.71973,1.98582 -4.29901,1.18517 -8.70558,1.75031 -13.13955,2.09203 -4.1728,0.45765 -8.05217,2.09483 -11.56153,4.33865 -0.51837,0.29552 -2.07217,1.18441 -1.55512,0.88656 43.34299,-24.96825 -1.76906,1.03024 -2.95857,1.76104 -5.43854,3.34131 11.03694,-6.41697 16.62049,-9.50987 1.04151,-0.57693 -1.86618,1.48197 -2.74691,2.28315 -1.51755,1.54213 -0.78649,0.7844 -2.19554,2.27095 0,0 -19.51414,8.24052 -19.51414,8.24052 v 0 c 1.33827,-1.66493 0.6123,-0.863 2.1863,-2.39817 6.02831,-6.89854 13.11715,-8.15723 22.10028,-14.19468 5.31711,-3.57355 -22.13304,12.91454 -16.62648,9.64043 8.63953,-5.13692 13.91762,-8.15421 21.11148,-12.27325 3.78558,-1.94831 7.8062,-3.30908 12.08786,-3.58712 4.39945,-0.43464 8.72326,-1.25122 13.02992,-2.24496 4.25977,-0.79884 8.51386,-1.67023 12.87562,-1.63663 5.56792,0.01 11.1359,0.0292 16.70377,-0.0102 4.41553,-0.069 8.8345,-0.11437 13.2395,-0.46063 4.47839,-0.36146 8.94562,-1.02235 13.44736,-0.94222 4.24502,-0.0426 8.53783,-0.0521 12.699,-0.99814 4.37322,-1.22392 8.32685,-3.42631 12.53103,-5.10754 3.04049,-1.34177 2.32713,-0.96018 5.19483,-2.48166 0.79579,-0.42221 3.15048,-1.74829 2.37374,-1.29198 -5.20549,3.0581 -20.85641,12.17332 -15.66108,9.09798 6.71412,-3.97438 13.48666,-7.84927 20.21757,-11.79516 5.21403,-3.05665 -10.44464,6.08495 -15.66695,9.12743 3.9764,-2.56596 8.23004,-4.68659 11.84094,-7.77853 4.26058,-3.34415 8.06121,-7.18507 11.48603,-11.38253 3.11755,-3.7806 6.1704,-7.62193 9.53235,-11.18762 3.13033,-3.92375 6.41265,-7.75075 8.99607,-12.0769 2.21043,-3.50736 3.59867,-7.41138 4.96744,-11.31038 0.91864,-3.7276 2.396,-7.25158 3.58881,-10.89479 0.92826,-4.3992 1.78614,-8.79146 1.9801,-13.29928 0.57813,-3.81092 1.66345,-7.51059 2.24605,-11.32054 0.75544,-3.08789 0.9072,-6.2982 1.55685,-9.41363 -0.0218,-0.48493 -0.0336,-0.9704 -0.0653,-1.45478 -0.0226,-0.34592 -0.0568,-0.69112 -0.0974,-1.03539 -0.0108,-0.0916 -0.13649,-0.22472 -0.0566,-0.27086 35.09131,-20.27202 21.17645,-13.87831 16.31743,-8.50791 -3.24817,4.11816 -7.36419,7.48718 -11.54297,10.61706 -8.49761,6.47997 -17.34862,10.77695 -26.82828,16.56591 -4.8811,2.98075 19.7625,-11.52389 14.83444,-8.62143 -19.56234,11.52156 -13.86842,8.47525 -23.13429,13.36084 -5.3874,2.41917 -10.97096,4.34651 -16.47337,6.48345 -6.84315,2.21653 -13.67866,4.45736 -20.56541,6.53637 -5.8474,1.79243 -11.67451,3.60014 -17.21946,6.22392 -4.78022,2.22853 -9.60007,4.39614 -14.50279,6.33889 -5.50291,2.02609 -11.15711,3.59329 -16.63953,5.68011 -5.29929,2.01127 -10.72086,3.75507 -15.75922,6.38826 -7.65742,4.01883 -2.9793,1.60248 14.23555,-8.39908 0.51613,-0.29986 -1.05609,0.56326 -1.54387,0.90732 -0.50092,0.35334 -0.94153,0.78524 -1.41229,1.17786 -0.53707,0.35524 -1.07413,0.71048 -1.6112,1.06571 -0.53312,0.34984 -1.06882,0.69573 -1.60324,1.04359 -2.97578,2.73914 -6.4397,4.96377 -8.68834,8.41081 -2.31521,3.11117 -4.84858,6.04022 -5.92618,9.87318 -2.85685,7.23684 -4.75832,14.84619 -8.09986,21.9034 -3.12648,7.39361 -6.47987,14.71794 -10.94046,21.42228 0,0 -19.44323,8.43247 -19.44323,8.43247 z" />
        <path
           style="fill:#000000;fill-opacity:1;stroke:none;filter:url(#filter5927)"
           id="path5727"
           d="m -846.07601,605.06246 c 0.8158,-0.4757 1.62356,-0.96547 2.4474,-1.42708 13.22016,-7.40749 -21.46408,13.30637 -8.61229,4.82117 0.87664,-0.57879 1.73608,-1.18334 2.61179,-1.76355 0.75742,-0.50185 1.5249,-0.98833 2.28736,-1.48249 6.65535,-3.70594 13.3107,-7.41189 19.96605,-11.11783 0.47229,0.0863 1.11837,-0.11726 1.41687,0.25877 0.56052,0.7061 0.84636,1.67219 0.83151,2.5736 -0.0354,2.15105 -3.61301,5.89621 -4.8473,7.40103 -0.9048,1.01179 -1.80043,2.03186 -2.71441,3.03537 -2.53327,2.7814 -5.23341,5.42279 -7.69001,8.27317 -1.55327,1.80225 -0.88885,2.37024 -1.57964,1.689 1.43232,-7.90292 0.88288,-1.93135 -15.18104,6.72147 -1.08632,0.58514 2.06496,-1.3512 3.09834,-2.02544 2.69334,-1.75727 5.38947,-3.44376 7.88907,-5.46939 2.50702,7.73203 -0.73767,-0.2751 16.82726,-6.02076 1.98737,-0.65008 -3.1918,2.70212 -4.79169,4.04844 -6.21319,5.22843 -12.36254,10.52814 -18.57352,15.75924 -3.4509,2.93926 -5.67646,4.64817 -8.69029,7.80702 -0.51775,0.54267 -1.30598,2.50237 -1.40357,1.7587 -0.5109,-3.89295 4.9117,-5.30227 6.91679,-6.44347 2.70248,-1.5381 5.39296,-3.09719 8.08944,-4.64579 3.0064,-1.6817 6.92907,-7.78334 9.01919,-5.0451 2.08723,2.73444 -11.9437,6.83274 -8.95549,5.12856 7.59777,-4.33302 22.76052,-14.42741 33.70678,-17.89861 6.5035,-3.19436 17.86294,-9.83438 -11.0909,6.5538 -0.78841,0.44625 1.55186,-0.93526 2.32456,-1.40819 2.6365,-1.61368 1.83614,-1.1168 4.45165,-2.8711 3.97562,-2.94441 7.99207,-5.82895 11.87429,-8.8962 0.5668,-0.44201 1.13359,-0.88402 1.70039,-1.32602 0,0 19.57405,-7.82783 19.57405,-7.82783 v 0 c -0.57261,0.4472 -1.14522,0.8944 -1.71783,1.3416 -3.96334,3.00798 -7.87826,6.0769 -11.89674,9.01544 -2.18577,1.59152 -4.40116,3.04144 -6.7384,4.40356 -8.13718,4.74227 -16.16868,10.3885 -25.03796,13.92784 -3.13003,1.23531 -1.96132,0.71635 -5.2416,2.27328 -1.36672,0.64868 -5.35428,2.79669 -4.09249,1.96209 3.48977,-2.30825 14.44208,-8.45621 10.79917,-6.39814 -8.38674,4.73812 -16.68798,9.62601 -25.03197,14.43902 -3.03787,1.71571 -6.07575,3.43143 -9.11363,5.14714 -2.81701,1.62391 -5.60663,3.29627 -8.45102,4.87171 -1.42847,0.7912 -7.77712,6.04308 -10.41559,1.98123 -0.49911,-0.76836 1.04854,-1.51027 1.67193,-2.18174 3.09726,-3.33619 5.48412,-5.11125 9.08168,-8.12896 6.15652,-5.12416 12.25819,-10.32452 18.28832,-15.59717 1.46693,-1.28266 2.67372,-2.90165 4.33148,-3.92583 6.83613,-4.22347 13.69452,-8.51204 21.04728,-11.75354 0.69193,-0.30504 0.69219,1.34467 1.03829,2.017 -2.45632,2.32821 -5.18512,3.91121 -7.98782,5.78846 -9.6094,6.43639 -0.78779,3.26581 -23.67007,13.92888 -0.80927,0.37712 -1.65039,-0.68173 -2.47559,-1.02259 -0.12377,-0.51884 -0.53457,-1.04872 -0.37132,-1.55652 0.24283,-0.75534 3.64198,-4.39482 3.83702,-4.60364 2.70233,-2.8932 5.54644,-5.65681 8.12648,-8.66451 0.3022,-0.35397 4.71293,-5.94718 5.03861,-6.08238 0.3453,-0.14334 0.92118,0.10127 1.0224,0.46118 0.0778,0.27642 -0.54067,0.19362 -0.81101,0.29043 5.38924,-3.17988 10.77847,-6.35977 16.1677,-9.53965 -2.72754,1.65765 -5.26357,3.65745 -8.00082,5.27966 -8.87444,5.25935 -17.79526,10.44092 -26.84159,15.39805 0,0 16.54245,-13.23239 16.54245,-13.23239 z" />
        <path
           style="fill:#000000;fill-opacity:1;stroke:none;filter:url(#filter5923)"
           id="path5729"
           d="m -717.7311,547.25966 c -2.95991,6.20623 -7.16211,11.55001 -11.84296,16.52876 -14.18926,13.28123 -32.94055,21.19365 -49.432,30.59611 -3.58486,1.12235 -7.15972,2.19132 -10.80202,3.1331 -5.40817,1.52148 -10.90032,2.4343 -16.49025,2.90158 -6.59065,-0.13192 -12.96397,1.39249 -19.33215,2.89367 -5.87531,0.84189 -11.72991,1.84278 -17.62313,2.56022 -0.90967,0.0808 -1.82854,0.0902 -2.72899,0.24252 -1.86958,0.31635 -3.67774,0.92547 -5.52175,1.36709 -2.53461,0.60701 -5.05668,1.04524 -7.63333,1.4265 -1.17921,0.1376 -3.02797,0.25339 -4.16681,0.75187 -0.57911,0.25349 -1.02922,0.73902 -1.58138,1.04682 -0.58336,0.3252 -1.23779,0.51237 -1.81581,0.84696 -0.54789,0.31714 -2.09789,1.41394 -1.54805,1.10019 11.95899,-6.82388 23.85549,-13.75668 35.78323,-20.63503 -2.91203,1.75852 -5.51027,3.69136 -7.31056,6.61556 -0.3038,0.78341 -3.19234,6.89426 -3.57647,6.86869 -0.2455,-0.0163 -0.27727,-0.40654 -0.41591,-0.6098 -0.0202,-0.29804 -0.23627,-0.65242 -0.0607,-0.89412 0.40172,-0.55307 1.36761,-0.0525 2.04633,-0.13382 1.65693,-0.19839 3.37151,-0.66852 4.9699,-1.12883 0.84997,-0.19896 1.71286,-0.34918 2.54993,-0.59689 5.91754,-1.7511 0.0196,-0.47202 7.08996,-2.19302 5.66995,-1.38015 11.49312,-1.99403 17.25726,-2.84419 9.42034,-2.16515 18.94,-3.85557 28.39776,-5.82316 3.13683,-0.74453 6.45287,-1.00293 9.47973,-2.18733 0.98067,-0.38374 1.8618,-0.98646 2.81536,-1.43333 -66.18839,35.25369 -43.39968,26.1266 -30.34705,16.76671 4.23995,-2.70555 8.48742,-5.41484 12.59993,-8.31233 3.16851,-2.41377 6.01997,-5.12189 8.66505,-8.08921 3.65549,-2.76776 6.52807,-6.32264 9.47179,-9.79049 10.59072,-13.60103 6.22657,-9.76229 40.08843,-25.40298 2.23095,-1.03047 2.68849,4.68156 2.49014,5.90478 -0.0999,0.61618 -0.40739,1.18011 -0.61108,1.77017 -1.62839,4.47062 -4.53666,8.15301 -7.54262,11.75459 -10.78959,11.67564 -29.91964,18.12192 -41.34604,24.316 -0.62253,0.33746 -4.48658,0.15142 -5.30176,0.15154 -4.19641,-0.24371 -8.46586,0.33605 -12.61348,-0.40356 -3.92597,-1.57819 -5.34359,-4.478 -5.01678,-8.55349 0.25134,-0.45426 0.41802,-0.96702 0.75401,-1.36279 0.32457,-0.3823 0.75276,-0.67372 1.18737,-0.92395 16.32749,-9.40052 26.87846,-21.13391 43.68114,-22.98912 4.46809,-0.19212 8.94353,-0.0907 13.41449,-0.0519 4.82629,0.24298 9.36582,-0.72226 13.61409,-2.96659 4.37428,-2.93735 6.11316,-4.20586 9.62884,0.54652 2.33894,5.08534 -1.1143,9.33902 -3.95505,13.38275 -5.20216,6.74943 -11.62455,12.3726 -18.13974,17.80542 -4.10883,3.23492 -8.18893,6.50526 -12.43643,9.55679 -2.0095,1.36459 -1.35977,0.97796 -3.42737,2.1702 -130.42783,75.20824 24.38409,-14.15249 -5.30435,3.1695 -13.02633,7.60033 -26.08879,15.13857 -39.13318,22.70786 -4.66816,3.04256 -9.91922,3.8416 -15.35764,4.26485 -9.22994,1.70279 -18.53321,3.02534 -27.84161,4.21929 -5.70988,1.0651 -11.61144,0.89248 -17.30651,2.03417 -1.83767,0.3684 -3.62235,0.9643 -5.43751,1.43115 -4.86848,1.14871 -9.88721,1.30801 -14.86374,1.50485 -2.55116,-0.0614 -5.15437,0.45301 -7.42761,1.65471 -0.85292,0.45088 -1.58097,1.11025 -2.41494,1.59529 12.13213,-7.0158 24.26426,-14.03159 36.39639,-21.04738 -0.74065,0.56369 -1.52709,1.08557 -2.10084,1.84025 -0.87119,1.14593 -1.55041,2.61658 -2.22708,3.88706 -0.51814,0.96098 -0.77074,2.01879 -1.09435,3.05061 -0.029,0.0925 -10e-4,-0.21858 0.0724,-0.28182 0.14633,-0.12584 0.35266,-0.1569 0.52899,-0.23535 0.30976,-0.28842 0.61953,-0.57685 0.9293,-0.86528 4.06027,-1.92005 8.52238,-2.79902 12.85982,-3.88277 1.90646,-0.45191 3.88439,-0.30097 5.80589,-0.608 1.05292,-0.16824 2.06944,-0.51792 3.11433,-0.73039 3.6725,-0.74676 7.4021,-1.22632 11.08873,-1.9025 8.24614,-1.13144 16.44664,-2.47318 24.47649,-4.69843 4.09529,-1.2305 8.41488,-2.14224 12.342,-3.89355 1.45026,-0.64675 2.8041,-1.49168 4.22354,-2.20353 16.38888,-9.58761 -43.76882,24.95158 -32.76926,18.81502 13.30344,-7.42189 26.44316,-15.13353 39.65448,-22.71818 0.87034,-0.49967 3.46065,-2.0342 2.59026,-1.53462 -11.41361,6.55109 -22.78323,13.17895 -34.22014,19.68928 -0.97162,0.55309 1.88022,-1.21019 2.82033,-1.81529 5.16878,-3.33022 9.86557,-7.31462 14.89637,-10.83915 3.97534,-2.22822 7.54512,-5.07057 11.37617,-7.51856 82.09652,-47.58029 23.42926,-13.55128 3.18734,-1.92299 -0.53209,0.30567 1.03281,-0.66301 1.54808,-0.99626 1.58504,-1.02516 3.10998,-2.08564 4.60851,-3.23345 2.39102,-1.56152 4.4964,-3.47458 6.73957,-5.23236 4.71076,-3.39746 2.84173,-6.10194 6.31613,1.11504 68.76194,-39.33609 38.42036,-22.20675 23.69246,-11.98758 -16.66419,11.89363 -34.63135,21.36957 -52.39774,31.67753 11.80171,-6.80823 47.21278,-27.22261 35.40512,-20.4247 -12.9331,7.44586 -25.67455,15.23309 -38.78147,22.36853 -1.98247,1.07926 -4.00266,-3.91787 -4.19199,-5.02914 -0.1233,-0.72376 0.0478,-1.4676 0.0717,-2.2014 0.51048,-4.59112 2.05749,-8.92601 4.22183,-12.97753 2.51808,-4.81946 6.49671,-8.53973 10.57586,-12.0297 14.74584,-11.03027 31.35147,-19.26211 47.43517,-28.14254 1.37797,-0.76083 2.55099,-0.34225 3.92876,-0.10738 3.31582,1.84368 4.15552,5.23575 4.4605,8.74039 0.13308,2.92358 0.0501,5.85176 0.0137,8.77678 -0.0535,3.818 -1.40031,7.45137 -3.10325,10.81795 -2.43955,4.60647 -5.93522,8.4857 -9.30635,12.41245 -2.58701,3.18454 -4.87462,6.65723 -7.85151,9.49758 -11.94614,11.41549 -33.38281,20.31283 -43.74846,26.28243 -2.84225,1.63685 -0.9309,0.72671 -4.04487,2.01486 -3.08686,2.11942 -6.65485,3.24691 -9.98877,4.86662 -6.2384,3.03077 0.74548,0.0843 -5.79555,2.72114 -5.40686,2.33681 -10.87993,4.50207 -16.32185,6.7541 -4.8468,1.71324 -10.03093,1.59053 -15.07433,2.15897 -5.99604,1.38557 -12.13302,1.86559 -18.25371,2.33726 -5.38287,0.37949 -10.77817,0.27127 -16.169,0.25004 -3.23167,-0.14718 -6.47827,0.10312 -9.70887,-0.0176 -0.31102,-0.0116 -3.65566,-0.24572 -4.07968,-0.5629 -0.62597,-0.46823 -0.934,-1.25377 -1.401,-1.88066 -0.25854,-0.8307 -0.68704,-1.62661 -0.77564,-2.49209 -0.0936,-0.91432 0.67147,-2.73686 1.46357,-3.20813 21.51878,-12.80297 27.39929,-18.20403 43.94809,-24.15367 7.79421,-1.77644 15.70101,-3.12223 23.60833,-4.28989 6.53381,-0.90243 13.05863,-1.81036 19.41312,-3.58322 3.56401,-0.63896 7.04991,-1.28939 10.54169,-2.28373 4.94829,-1.69134 10.01004,-2.97033 15.02162,-4.47584 4.25979,-1.27908 8.69943,-1.91434 12.92792,-3.29672 1.79943,-0.58827 3.5508,-1.31464 5.33222,-1.95536 3.69109,-1.5495 7.64581,-2.06989 11.49069,-3.05379 7.68589,-1.96681 -0.59769,-0.23706 6.36896,-1.60698 0.63494,-0.0441 1.34899,-0.4425 1.90481,-0.1324 2.05873,1.1486 2.4586,4.39182 1.75854,6.30177 -0.44894,1.2248 -8.57711,6.19089 -9.69531,6.89817 -6.27042,3.68004 -12.39225,7.5906 -18.36013,11.74146 -3.20863,2.42938 -6.42774,4.83582 -9.73427,7.12954 -15.59009,9.55844 28.93653,-17.7229 -40.49275,23.48843 -11.90932,7.06905 23.96836,-13.88291 35.97903,-20.77836 0.43794,-0.25143 -0.82049,0.59187 -1.25774,0.84449 -38.83363,22.43561 -24.28584,18.79822 -40.18304,22.61904 -12.78075,6.14255 -52.95459,39.03467 33.49565,-26.54945 0.39038,-0.29615 0.9751,-0.14421 1.43808,-0.30467 1.41591,-0.49074 2.75902,-1.17321 4.16299,-1.69714 2.03323,-0.94107 2.49063,-1.08616 4.40816,-2.23747 0.68138,-0.40911 2.68916,-1.69377 1.99945,-1.29887 -61.64718,35.29621 -43.5886,25.88363 -31.16516,17.77416 3.40841,-2.02225 6.79525,-4.04257 9.80127,-6.63681 15.80127,-17.84064 -4.69686,-1.1146 44.26989,-28.55424 4.03566,4.24109 2.63373,7.10487 0.3069,11.59959 -1.74522,2.74232 -3.44578,5.5958 -5.68556,7.96962 -1.60036,2.28209 -3.94435,3.82701 -6.36528,5.13526 -12.96223,9.56665 -3.44171,2.60188 -39.71949,23.12164 -0.39707,0.22459 -0.92978,0.0836 -1.33812,0.28695 -0.4114,0.2049 -0.6669,0.63811 -1.04472,0.89981 -0.94041,0.65136 -1.6332,0.84907 -2.69039,1.26166 -3.14541,0.57877 -6.05529,1.90431 -9.16517,2.62379 -4.01655,1.64837 -8.36761,2.11654 -12.66319,2.39003 -3.60448,0.28326 -7.22506,0.13758 -10.83219,0.30971 -0.0922,0.0264 -0.35461,0.1348 -0.27654,0.0791 39.52239,-28.18042 22.59998,-25.89052 45.00695,-25.7999 3.0593,-0.28256 6.07737,-0.75614 8.82379,-2.23445 0.64,-0.34449 2.40596,-1.62658 1.77339,-1.26865 -11.80276,6.67816 -23.52935,13.49006 -35.29403,20.23509 1.77053,-0.93084 3.29847,-2.22449 4.89239,-3.41537 0,0 40.29987,-16.75782 40.29987,-16.75782 v 0 c -1.33213,1.80568 -2.88992,3.0501 -4.59825,4.50842 -18.92031,10.90117 -30.94589,24.273 -51.07265,24.49628 -20.29114,0.1336 -21.74694,5.1861 25.96952,-25.6825 3.4271,0.15072 6.87138,-0.11954 10.28129,-0.43648 4.19882,-0.61221 8.25186,-1.68297 12.25918,-3.0792 2.95743,-1.05801 6.06624,-1.76623 8.82683,-3.28684 0.3596,-0.21348 2.17345,-1.30402 2.54777,-1.47044 0.46133,-0.20511 0.97662,-0.27357 1.43428,-0.48674 0.37113,-0.17288 1.38833,-0.86803 1.03397,-0.66297 -16.73279,9.68319 -49.11665,28.52976 -35.22707,20.44662 2.00226,-1.77474 4.53003,-2.75785 6.75619,-4.18497 2.86258,-3.47357 -1.10267,1.1854 2.02103,-1.99696 1.56713,-1.59656 2.75821,-3.65129 4.1142,-5.4063 0.42331,-0.54682 2.83808,-4.48341 3.21927,-4.38524 0.63809,0.16434 1.19611,1.5204 1.404,1.90884 12.37479,-7.09207 24.77723,-14.1361 37.12436,-21.2762 0.40383,-0.23353 -0.89003,0.3053 -1.28614,0.55169 -2.11035,1.31268 -3.53699,3.66261 -4.82164,5.70116 -2.5364,3.33294 -5.76734,5.85026 -9.48892,7.76697 -1.3535,0.79647 -2.6086,1.75305 -3.964,2.54628 -14.55967,8.52094 -29.76673,19.33602 -46.08431,25.76549 -6.63392,2.60658 1.8454,-0.68086 -4.58091,1.67402 -0.49155,0.18013 -1.85689,0.93034 -1.45207,0.59841 52.91604,-43.38829 19.47669,-21.51163 35.60511,-27.62864 13.10183,-7.80305 1.97638,-1.17063 -35.09942,20.28873 -0.44353,0.25672 0.89117,-0.50635 1.33397,-0.76433 12.91678,-7.52552 26.03891,-14.70971 38.74475,-22.58614 11.19695,-6.94107 -49.4838,29.45405 -34.23181,19.7518 3.58678,-1.94264 6.89183,-4.3928 10.08492,-6.92235 6.01126,-4.50625 12.41192,-8.48379 18.8961,-12.26751 2.32992,-1.43184 4.70747,-2.78762 7.00251,-4.27474 0.71897,-0.46587 1.23958,-1.56004 2.09351,-1.49093 1.0409,0.0842 1.73994,1.16754 2.51798,1.86413 0.43193,0.38672 1.16606,0.7866 1.0836,1.36046 -0.0632,0.44005 -0.87522,0.1566 -1.31284,0.2349 -5.9497,1.43485 -11.86189,2.98125 -17.61304,5.09524 -6.00941,1.92955 -12.20575,3.16343 -18.23656,5.0268 -5.14176,1.52976 -10.26915,3.10687 -15.42659,4.58052 -3.49772,0.81871 -7.05574,1.26699 -10.53436,2.17973 -6.29629,1.25142 -12.71341,1.8359 -19.04367,2.89174 -7.87729,1.36135 -15.92343,2.41667 -23.409,5.34202 -14.19094,6.24759 -29.85464,18.25378 30.95599,-18.39132 0.17865,-0.10765 -2.32138,0.14986 -2.52206,0.0447 -0.47555,-0.24918 -0.77374,-0.7445 -1.16062,-1.11675 -0.16612,-0.23699 -0.69326,-0.49703 -0.49835,-0.71096 0.23034,-0.25283 0.67529,0.11385 1.0161,0.14268 0.70273,0.0594 1.40723,0.10262 2.1122,0.12196 3.23911,0.0889 6.48248,-0.0188 9.72179,-0.0139 5.34539,-0.0544 10.69516,-0.16403 16.02787,-0.55736 6.11287,-0.50538 12.13433,-1.51389 18.19209,-2.44354 4.92201,-0.5117 9.86393,-1.00965 14.38932,-3.19829 5.35822,-2.23662 10.82881,-4.20158 16.08157,-6.68999 5.33713,-2.58169 10.7064,-5.08422 15.92393,-7.90392 13.04924,-7.40627 29.8705,-17.32857 -31.47636,18.25901 -0.56513,0.32783 1.14142,-0.63767 1.72982,-0.92164 0.55952,-0.27004 1.17368,-0.42722 1.71107,-0.73899 0.50933,-0.29548 0.93736,-0.71293 1.40604,-1.06939 4.00709,-3.97188 -1.62692,1.49923 2.7439,-2.36393 2.18103,-1.92772 3.54215,-4.64154 5.62266,-6.67725 2.85695,-4.11145 6.69195,-7.44179 9.40221,-11.68472 1.62195,-2.81096 3.21442,-5.60058 3.84326,-8.83194 0.0313,-2.83373 0.0917,-5.66723 0.095,-8.50117 -0.009,-0.5216 0.25127,-2.93498 -0.23115,-3.35105 -0.18792,-0.16207 -0.30313,1.37161 -0.58004,0.46668 -12.85384,6.22262 -27.74017,15.94868 32.2759,-18.94797 0.90816,-0.52806 -1.84152,1.01315 -2.73725,1.56202 -1.98376,1.21556 -3.49912,2.32503 -5.3964,3.65932 -4.24179,2.78731 -7.97147,6.25474 -11.02995,10.29442 -2.14384,3.56045 -4.10494,7.05347 -4.89421,11.19709 -0.0733,0.47035 0.0905,1.05006 -0.21985,1.41106 -0.39937,0.46464 -1.20084,-0.78163 -1.19769,-1.39432 0.002,-0.29397 0.78578,-0.85004 0.5302,-0.70477 -5.95498,3.38483 -94.61324,54.93196 3.09298,-1.85347 -11.65893,6.77421 -23.31786,13.54843 -34.97679,20.32264 0.77316,-0.47577 1.55465,-0.93827 2.31949,-1.42731 9.62653,-6.15517 -5.45219,3.41271 5.08089,-3.53774 0.97608,-0.64408 2.00523,-1.2039 3.00784,-1.80586 1.04953,-0.70547 2.09907,-1.41095 3.14861,-2.11643 16.42115,-11.59432 32.70412,-21.84779 51.46615,-30.49176 1.01225,1.42226 2.1746,2.74883 3.03675,4.26678 0.63279,1.11411 -3.34502,3.8866 -3.85341,4.93308 -2.20782,1.95297 -4.54953,3.66334 -6.73325,5.63088 -2.11347,1.33817 -3.91884,3.09818 -6.08056,4.36513 -21.25114,12.45499 -78.62329,45.72512 -3.29109,2.00285 -3.87782,2.44514 -7.64606,4.99137 -11.40601,7.61695 -5.54765,2.92138 -10.2052,7.15451 -15.25458,10.82441 -15.4387,10.29898 -2.96603,2.05819 -42.47169,25.03998 -0.89063,0.51811 -3.60342,1.99994 -2.71267,1.48204 72.1979,-41.97719 17.72,-9.75671 -7.12947,3.82777 -5.30989,2.36033 -10.99443,3.69307 -16.62524,5.06088 -8.19572,1.80227 -16.43474,3.28824 -24.73183,4.53825 -6.75077,1.19067 -13.52071,2.34638 -20.21401,3.80233 -4.51696,1.20423 -9.01982,2.8756 -13.692,3.19349 -0.75888,-0.27571 -1.5725,-0.43204 -2.27665,-0.82713 -3.15218,-1.76868 -3.57941,-5.19546 -2.56844,-8.296 0.54059,-1.61474 1.32598,-2.90214 2.024,-4.42477 0.26167,-0.5708 0.35612,-1.20932 0.62258,-1.7779 6.52352,-13.92028 63.05746,-2.64368 39.28195,-24.16407 3.39013,-1.44584 7.0759,-1.56217 10.71813,-1.6252 4.82581,-0.2734 9.61998,-0.83297 14.31142,-2.04625 7.33363,-1.44968 14.84512,-1.46918 22.2289,-2.60352 9.48701,-1.37464 18.93768,-2.94623 28.37687,-4.61422 5.29507,-1.03106 10.14108,-2.84765 14.6832,-5.81129 -11.78129,6.85964 -23.53277,13.77072 -35.34386,20.57893 -0.60068,0.34624 1.1088,-0.83779 1.70634,-1.18943 27.99771,-16.47609 72.61169,-42.18223 3.46326,-2.2444 -1.17415,0.67815 4.74896,-2.77909 3.58521,-1.92169 4.5637,-2.87321 8.77072,-6.21675 13.07896,-9.45345 6.61697,-4.97413 13.09605,-10.36012 18.35493,-16.78047 0.66347,-0.75439 1.38547,-1.46108 1.99041,-2.26316 1.13117,-1.49981 1.81913,-3.51193 3.06868,-4.92043 0.0153,-0.0172 0.72614,-0.40582 0.94959,-0.52823 -1.62722,1.84898 -3.87154,2.85608 -6.2082,3.70626 -4.70983,1.4034 -9.53777,1.68272 -14.44182,1.51437 -4.42366,0.0714 -8.92394,-0.0263 -13.2575,0.9884 -1.2125,0.36779 -1.60976,0.44268 -2.767,0.97782 -0.45233,0.20917 -1.75646,0.94187 -1.32513,0.69226 12.05409,-6.97557 24.1297,-13.91387 36.19455,-20.87081 -1.64333,0.7007 -0.80757,0.51249 -2.49612,0.61213 -3.08438,-0.58674 -1.36424,0.81156 0.3318,0.67213 4.03987,0.0849 8.09514,0.15172 12.1228,-0.22593 1.12118,-0.17562 2.15756,-0.27556 3.22823,-0.67044 0.46379,-0.17105 1.76344,-0.89217 1.33555,-0.64463 -58.68637,33.95242 -47.07421,26.03303 -33.37962,19.5315 3.26627,-2.81131 6.3612,-6.19276 8.15416,-10.14116 2.26954,-4.72427 0.77927,2.96632 3.59117,1.60621 66.01167,-31.92988 43.64791,-31.66409 34.25419,-19.37087 -2.78722,3.69539 -5.82212,7.2697 -9.10986,10.52995 -3.422,2.15143 -5.2656,6.11965 -8.80877,8.2274 -3.63364,3.49244 -8.13279,5.77057 -12.17941,8.7409 -14.92845,8.2626 -24.22904,29.622 -44.81145,26.15905 -3.98219,1.3819 -8.23942,1.71871 -12.35119,2.56523 -9.23213,1.5596 -18.41644,3.35939 -27.6194,5.08033 -4.78799,0.81019 -7.80797,1.23439 -12.49549,2.35777 -5.22262,1.25163 -10.21856,3.31047 -15.51231,4.27978 -4.14479,0.44357 -8.17805,0.59661 -10.86154,-3.12635 -0.26653,-0.68095 -0.69423,-1.31922 -0.7996,-2.04284 -0.20308,-1.39469 0.58611,-1.46996 1.24558,-2.41819 1.00465,-1.44455 1.84369,-3.10193 2.53123,-4.71376 1.27439,-3.59477 2.90762,-6.83019 6.37012,-8.77419 12.95196,-7.57067 25.8618,-15.21385 38.85587,-22.712 0.18143,-0.10469 3.57312,-1.45925 3.69929,-1.49563 2.01382,-0.58066 4.15807,-0.5203 6.19443,-0.98077 5.29083,-0.97617 10.50186,-2.4038 15.87994,-2.86499 5.77433,-0.84738 11.58982,-1.47889 17.28928,-2.76337 6.50053,-1.33513 13.0345,-2.18544 19.66187,-2.56113 5.49992,-0.75902 10.8984,-2.00367 16.22121,-3.58608 3.5419,-1.06591 7.1117,-2.21411 10.4394,-3.83252 -65.95943,38.15671 -38.09026,23.5607 -24.5746,13.09188 4.76054,-4.26772 8.98757,-8.92505 11.87913,-14.68292 0,0 39.8488,-18.31167 39.8488,-18.31167 z" />
        <path
           style="fill:#000000;fill-opacity:1;stroke:none;filter:url(#filter5919)"
           id="path5731"
           d="m -857.481,626.46625 c -11.8983,6.87636 -23.77071,13.7977 -35.69489,20.62908 -0.65034,0.37258 1.22183,-0.87199 1.86894,-1.25016 13.01769,-7.60746 26.25047,-14.85183 39.12172,-22.70452 11.62922,-7.09493 -47.23614,27.16533 -35.39465,20.43065 2.37101,-1.34848 96.0354,-55.37534 3.96127,-2.27008 13.8924,-14.89449 32.16269,-17.87935 48.40928,-26.86976 13.49639,-6.28291 31.00295,-17.9441 -33.09689,19.25402 -0.22388,0.12993 0.49451,-0.28178 0.74536,-0.21791 0.24834,0.0632 0.42167,0.31917 0.54163,0.54563 0.48054,0.90715 0.82705,1.8792 1.24058,2.8188 -0.0307,0.37867 0.18109,0.87193 -0.092,1.13603 -0.33726,0.32613 -0.91578,0.20624 -1.37817,0.28566 -0.83383,0.14322 -1.68707,0.1824 -2.50922,0.38205 -3.26123,0.79198 -6.45751,2.00367 -9.71126,2.86012 -1.10633,0.23689 -2.21267,0.47378 -3.31901,0.71067 0,0 34.33674,-26.17869 34.33674,-26.17869 v 0 c 1.06494,-0.27329 2.12989,-0.54658 3.19483,-0.81987 3.36032,-0.96437 6.70069,-1.93515 10.09896,-2.75877 0.92703,-0.22468 1.85376,-0.4508 2.78317,-0.66545 0.53097,-0.12262 1.05813,-0.42238 1.59774,-0.3463 0.60273,0.085 1.09343,0.5352 1.64014,0.8028 0.3103,0.46261 3.87852,4.33502 1.70139,5.62599 -14.82715,8.79204 -27.34957,16.76315 -41.8445,23.86861 -14.69925,6.92075 -38.1259,19.06362 26.27398,-16.10013 -13.06381,7.56446 -26.21222,14.98465 -39.19143,22.69337 -11.67925,6.93663 47.05339,-27.1722 35.2913,-20.37697 -13.04328,7.5354 -25.91077,15.38413 -39.13487,22.59749 -11.95225,6.5196 23.53363,-13.69728 35.31805,-20.51553 0.62378,-0.36091 -1.22343,0.76196 -1.83515,1.14294 -12.99909,7.6193 -25.99817,15.2386 -38.99725,22.85789 0,0 34.07423,-27.56766 34.07423,-27.56766 z" />
        <path
           style="fill:#000000;fill-opacity:1;stroke:none;filter:url(#filter5915)"
           id="path5733"
           d="m -889.30313,635.42725 c 1.93837,-1.65742 3.95508,-3.17387 6.05551,-4.61697 0,0 40.42582,-15.70836 40.42582,-15.70836 v 0 c -2.02339,1.17267 -4.19678,2.19008 -5.82449,3.91495 0,0 -40.65684,16.41038 -40.65684,16.41038 z" />
      </g>
      <text
         id="text4617-77"
         y="-207.63782"
         x="-1340"
         style="font-style:normal;font-weight:normal;line-height:0%;font-family:sans-serif;letter-spacing:0px;word-spacing:0px;fill:#000000;fill-opacity:1;stroke:none"
         xml:space="preserve"><tspan
           y="-207.63782"
           x="-1340"
           id="tspan4619-1"
           style="font-size:40px;line-height:1.25;font-family:sans-serif">ES</tspan></text>
    </g>
    <text
       xml:space="preserve"
       style="font-style:normal;font-weight:normal;line-height:0%;font-family:sans-serif;text-align:center;letter-spacing:0px;word-spacing:0px;text-anchor:middle;fill:#000000;fill-opacity:1;stroke:none"
       x="-1228.5625"
       y="109.10716"
       id="text4617-7-0"><tspan
         id="tspan4619-4-4"
         x="-1228.5625"
         y="109.10716"
         style="font-size:40px;line-height:0.9;font-family:sans-serif">MPLampS</tspan><tspan
         x="-1228.5625"
         y="145.10716"
         id="tspan6056"
         style="font-size:40px;line-height:0.9;font-family:sans-serif">LSR</tspan></text>
    <path
       style="fill:none;stroke:#000000;stroke-width:3;stroke-linecap:butt;stroke-linejoin:miter;stroke-miterlimit:4;stroke-dasharray:none;stroke-opacity:1;marker-end:url(#Arrow1Lend)"
       d="m -1140,-27.637817 v 80"
       id="path6262" />
    <rect
       style="opacity:1;fill:#e6a9e9;fill-opacity:1;stroke:#000000;stroke-width:3;stroke-miterlimit:4;stroke-dasharray:none;stroke-dashoffset:0;stroke-opacity:1"
       id="rect4615-1-4"
       width="100"
       height="560"
       x="-960"
       y="-347.63782" />
    <text
       id="text4617-77-6"
       y="-267.63782"
       x="-937.8418"
       style="font-style:normal;font-weight:normal;line-height:0%;font-family:sans-serif;letter-spacing:0px;word-spacing:0px;fill:#000000;fill-opacity:1;stroke:none"
       xml:space="preserve"><tspan
         y="-267.63782"
         x="-937.8418"
         id="tspan4619-1-0"
         style="font-size:40px;line-height:1.25;font-family:sans-serif">RT</tspan></text>
    <text
       xml:space="preserve"
       style="font-style:normal;font-weight:normal;line-height:0%;font-family:sans-serif;text-align:center;letter-spacing:0px;word-spacing:0px;text-anchor:middle;fill:#000000;fill-opacity:1;stroke:none"
       x="-1218"
       y="428.36218"
       id="text4617-7-0-3"><tspan
         id="tspan4619-4-4-6"
         x="-1218"
         y="428.36218"
         style="font-size:40px;line-height:0.9;font-family:sans-serif">CRLDP</tspan><tspan
         x="-1218"
         y="464.36218"
         id="tspan6056-2"
         style="font-size:40px;line-height:0.9;font-family:sans-serif">CRLDP-TE</tspan></text>
    <text
       xml:space="preserve"
       style="font-style:normal;font-weight:normal;line-height:0%;font-family:sans-serif;text-align:center;letter-spacing:0px;word-spacing:0px;text-anchor:middle;fill:#000000;fill-opacity:1;stroke:none"
       x="-1014"
       y="348.36218"
       id="text4617-7-0-3-4"><tspan
         id="tspan4619-4-4-6-5"
         x="-1014"
         y="348.36218"
         style="font-size:40px;line-height:0.9;font-family:sans-serif">OSPF</tspan><tspan
         x="-1014"
         y="384.36218"
         id="tspan6056-2-8"
         style="font-size:40px;line-height:0.9;font-family:sans-serif">OSPF-TE</tspan></text>
    <text
       xml:space="preserve"
       style="font-style:normal;font-weight:normal;line-height:0%;font-family:sans-serif;text-align:center;letter-spacing:0px;word-spacing:0px;text-anchor:middle;fill:#000000;fill-opacity:1;stroke:none"
       x="-1040"
       y="286.36218"
       id="text4617-7-0-3-8"><tspan
         x="-1040"
         y="286.36218"
         id="tspan6056-2-2"
         style="font-size:40px;line-height:0.9;font-family:sans-serif">ISIS</tspan></text>
    <path
       style="fill:none;stroke:#000000;stroke-width:1.4;stroke-linecap:butt;stroke-linejoin:miter;stroke-miterlimit:4;stroke-dasharray:none;stroke-opacity:1"
       d="m -1120,172.36218 v 80 h 180 v -40"
       id="path6555" />
    <path
       style="fill:none;stroke:#000000;stroke-width:1.4;stroke-linecap:butt;stroke-linejoin:miter;stroke-miterlimit:4;stroke-dasharray:none;stroke-opacity:1"
       d="m -1220,172.36218 v 180 h 300 v -140"
       id="path6557" />
    <path
       style="fill:none;stroke:#000000;stroke-width:1.4;stroke-linecap:butt;stroke-linejoin:miter;stroke-miterlimit:4;stroke-dasharray:none;stroke-opacity:1"
       d="m -1340,172.36218 v 260 h 460 v -220"
       id="path6561" />
    <path
       style="fill:none;stroke:#000000;stroke-width:3;stroke-linecap:butt;stroke-linejoin:miter;stroke-miterlimit:4;stroke-dasharray:none;stroke-opacity:1;marker-end:url(#Arrow1Lend)"
       d="m -1340,-187.63782 v 80"
       id="path6563" />
  </g>
</svg>
